<svg id="Layer_1" enable-background="new 0 0 512.005 512.005" height="512" viewBox="0 0 512.005 512.005" width="512" xmlns="http://www.w3.org/2000/svg"><g><g><path d="m492.003 293.726v-63.438c11.639-4.128 20-15.244 20-28.28 0-16.542-13.458-30-30-30h-165.301c5.727-7.038 12.144-16.252 15.916-23.933 9.403-19.148 19.336-48.024 13.258-76.854-5.482-26.003-24.775-45.806-49.15-50.45-12.328-2.348-21.616.827-28.667 3.772.02-6.409-1.094-12.546-3.376-18.253-2.052-5.129-7.873-7.624-12.999-5.571-5.128 2.051-7.622 7.871-5.571 12.999 1.663 4.158 2.128 8.464 1.897 12.583-36.32-10.689-56.541.248-67.31 12.037-11.123 12.176-16.8 30.238-16.416 52.232.337 19.285 5.336 39.707 14.076 57.506 3.772 7.68 10.19 16.894 15.916 23.932h-72.27c-38.599 0-70 31.402-70 70v39.999c0 19.573 8.084 37.285 21.077 50h-3.08c-38.599 0-70 31.402-70 70v39.999c0 38.598 31.401 70 70 70h359.997c16.543 0 30.001-13.458 30.001-30 0-13.037-8.361-24.153-20.001-28.281v-63.438c11.64-4.128 20.001-15.243 20.001-28.28 0-3.506-.61-6.87-1.72-10h23.722c16.542 0 30-13.458 30-30 0-13.037-8.361-24.153-20-28.281zm-296.539-241.899c6.6-7.225 15.641-9.836 25.271-9.836 1.365 0 2.742.055 4.125.154-.449.721-.822 1.504-1.083 2.355-1.618 5.281 1.351 10.873 6.632 12.491 4.207 1.29 7.981 1.83 11.392 1.83 10.719 0 17.824-5.338 23.373-9.507 2.567-1.929 4.996-3.748 7.646-5.062.227-.098.459-.195.685-.292 6.27-2.698 11.682-5.027 19.479-3.542 16.43 3.13 29.51 16.841 33.323 34.929 4.902 23.251-3.624 47.59-11.639 63.913-3.507 7.139-11.472 18.383-17.756 25.064-3.773 4.011-8.773 6.351-10.888 5.945-2.309-.443-4.963-1.463-8.036-2.645-5.959-2.29-13.375-5.14-22.499-5.14s-16.54 2.85-22.499 5.14c-3.073 1.181-5.728 2.201-8.036 2.645-2.127.4-7.114-1.934-10.888-5.945-6.284-6.681-14.249-17.925-17.756-25.064-13.871-28.249-17.981-68.677-.846-87.433zm-73.459 240.179c-5.421 0-10-4.58-10-10v-9.999h135.003c5.522 0 10-4.477 10-10s-4.478-10-10-10h-135.003v-10c0-5.42 4.579-10 10-10h349.998v19.999h-134.995c-5.522 0-10 4.477-10 10s4.478 10 10 10h134.995v19.999h-349.998zm68.624 159.999v-19.999h229.371v19.999zm-45-19.999h25v44.612l-8.439-3.75c-2.584-1.149-5.537-1.149-8.121 0l-8.439 3.75v-44.612c-.001 0-.001 0-.001 0zm274.371-20h-359.998v-9.999c0-5.42 4.579-10 10-10h349.998zm-359.998 20h65.627v19.999h-55.627c-5.421 0-10-4.579-10-10zm369.998 59.999h-239.371v-20h239.371c5.515 0 10.001 4.486 10.001 10s-4.486 10-10.001 10zm10.001-129.998c0 5.514-4.486 10-10.001 10h-359.998c-16.542 0-30 13.458-30 30v39.999c0 16.542 13.458 30 30 30h55.627v20h-55.627c-27.57 0-50-22.43-50-50v-39.999c0-27.57 22.43-50 50-50h52.003 307.995c5.515 0 10.001 4.486 10.001 10zm42.002-30h-359.998c-27.57 0-50-22.43-50-50v-39.999c0-27.57 22.43-50 50-50h359.998c5.514 0 10 4.486 10 10s-4.486 10-10 10h-359.998c-16.542 0-30 13.458-30 30v39.999c0 16.542 13.458 30 30 30h359.998c5.514 0 10 4.486 10 10s-4.486 10-10 10z"/><path d="m292.011 252.007h-.007c-5.522 0-9.996 4.477-9.996 10s4.48 10 10.003 10 10-4.477 10-10-4.478-10-10-10z"/></g></g></svg>