<svg id="Capa_1" enable-background="new 0 0 512 512" height="512" viewBox="0 0 512 512" width="512" xmlns="http://www.w3.org/2000/svg"><g><path d="m194.608 101.834c3.123 2.72 7.86 2.396 10.582-.727 2.729-3.132 6.669-4.928 10.81-4.928s8.081 1.796 10.81 4.928c1.483 1.702 3.564 2.572 5.657 2.572 1.748 0 3.503-.607 4.925-1.846 3.123-2.722 3.448-7.459.727-10.582-5.579-6.4-13.641-10.071-22.119-10.071s-16.54 3.671-22.119 10.073c-2.721 3.122-2.396 7.86.727 10.581z"/><path d="m139.367 73.57 7.078 1.897c-.252.75-.394 1.551-.394 2.386v10.367c0 4.142 3.358 7.5 7.5 7.5s7.5-3.358 7.5-7.5v-8.84l2.381.638c.65.174 1.303.257 1.946.257 3.311 0 6.342-2.21 7.24-5.561 1.072-4.001-1.302-8.113-5.304-9.186l-24.065-6.448c-3.997-1.067-8.113 1.302-9.186 5.304-1.071 4.002 1.303 8.114 5.304 9.186z"/><path d="m266.622 80.276c.643 0 1.296-.083 1.946-.257l2.381-.638v8.839c0 4.142 3.358 7.5 7.5 7.5s7.5-3.358 7.5-7.5v-10.366c0-.835-.142-1.636-.394-2.386l7.078-1.897c4.001-1.072 6.375-5.185 5.303-9.186s-5.186-6.374-9.186-5.304l-24.065 6.448c-4.001 1.072-6.375 5.185-5.304 9.186.899 3.351 3.929 5.561 7.241 5.561z"/><path d="m451 0h-80-310c-15.164 0-27.5 12.336-27.5 27.5v457c0 15.164 12.336 27.5 27.5 27.5h310 80c15.164 0 27.5-12.336 27.5-27.5v-457c0-15.164-12.336-27.5-27.5-27.5zm-390 15h310c6.893 0 12.5 5.607 12.5 12.5v402.771h-65.026l38.05-106.946c1.115-3.134.033-6.627-2.658-8.582-2.691-1.956-6.347-1.905-8.983.124l-64.521 49.661c-3.164-4.543-8.418-7.528-14.362-7.528h-2.5v-148.154c0-4.833-2.026-9.496-5.56-12.793l-30-28c-6.695-6.249-17.186-6.249-23.881 0l-30 28c-3.533 3.297-5.56 7.96-5.56 12.793v44.827c0 4.142 3.358 7.5 7.5 7.5s7.5-3.358 7.5-7.5v-44.827c0-.69.29-1.356.794-1.828l30-28c.957-.893 2.455-.893 3.412 0l30 28c.504.471.794 1.137.794 1.828v148.154h-65v-75.327c0-4.142-3.358-7.5-7.5-7.5s-7.5 3.358-7.5 7.5v75.327h-2.499c-5.944 0-11.198 2.985-14.362 7.529l-64.521-49.661c-2.635-2.028-6.292-2.079-8.983-.125-2.691 1.955-3.773 5.448-2.658 8.582l38.05 106.946h-65.026v-402.771c0-6.893 5.607-12.5 12.5-12.5zm142.5 442v-45h25v45zm-37.5-60c-1.378 0-2.5-1.122-2.5-2.5v-20c0-1.378 1.122-2.5 2.5-2.5h100c1.378 0 2.5 1.122 2.5 2.5v20c0 1.378-1.122 2.5-2.5 2.5zm-117.5 87.5v-39.229h75.655c2.438 0 4.723-1.185 6.128-3.176 1.405-1.992 1.755-4.542.938-6.838l-33.079-92.975 50.358 38.76v13.458c0 9.649 7.851 17.5 17.5 17.5h22.5v45h-2.5c-4.142 0-7.5 3.358-7.5 7.5s3.358 7.5 7.5 7.5h60c4.142 0 7.5-3.358 7.5-7.5s-3.358-7.5-7.5-7.5h-2.5v-45h22.5c9.649 0 17.5-7.851 17.5-17.5v-13.457l50.358-38.76-33.079 92.975c-.817 2.296-.467 4.847.938 6.838s3.69 3.176 6.128 3.176h75.655v39.228c0 6.893-5.607 12.5-12.5 12.5h-310c-6.893 0-12.5-5.607-12.5-12.5zm415 0c0 6.893-5.607 12.5-12.5 12.5h-55.518c1.924-3.753 3.018-8 3.018-12.5v-12.5h22.5c9.649 0 17.5-7.851 17.5-17.5v-322.833c0-4.142-3.358-7.5-7.5-7.5s-7.5 3.358-7.5 7.5v322.833c0 1.378-1.122 2.5-2.5 2.5h-22.5v-402h22.5c1.378 0 2.5 1.122 2.5 2.5v46.167c0 4.142 3.358 7.5 7.5 7.5s7.5-3.358 7.5-7.5v-46.167c0-9.649-7.851-17.5-17.5-17.5h-22.5v-12.5c0-4.5-1.093-8.747-3.018-12.5h55.518c6.893 0 12.5 5.607 12.5 12.5z"/><path d="m86.644 298.869c.712 2.491 2.66 4.439 5.151 5.151l39.598 11.314c.68.194 1.373.289 2.06.289 1.961 0 3.877-.771 5.304-2.197 1.926-1.926 2.656-4.745 1.908-7.364l-11.313-39.598c-.712-2.491-2.66-4.439-5.151-5.151l-39.598-11.313c-2.62-.75-5.438-.018-7.364 1.908s-2.656 4.745-1.908 7.364zm29.429-24.278 6.46 22.611-22.611-6.46-6.46-22.611z"/><path d="m293.243 313.426c1.426 1.426 3.342 2.197 5.304 2.197.688 0 1.38-.094 2.06-.289l39.598-11.314c2.491-.712 4.439-2.66 5.151-5.151l11.313-39.598c.748-2.619.018-5.438-1.908-7.364s-4.743-2.658-7.364-1.908l-39.598 11.313c-2.491.712-4.439 2.66-5.151 5.151l-11.313 39.598c-.748 2.62-.018 5.439 1.908 7.365zm22.684-38.835 22.611-6.46-6.46 22.611-22.611 6.46z"/></g></svg>