<?xml version="1.0" encoding="iso-8859-1"?>
<!-- Generator: Adobe Illustrator 19.1.0, SVG Export Plug-In . SVG Version: 6.00 Build 0)  -->
<svg version="1.1" id="Capa_1" xmlns="http://www.w3.org/2000/svg" xmlns:xlink="http://www.w3.org/1999/xlink" x="0px" y="0px"
	 viewBox="0 0 95.878 95.878" style="enable-background:new 0 0 95.878 95.878;" xml:space="preserve">
<g>
	<path d="M47.939,0c-26.46,0-47.88,21.446-47.88,47.939s21.42,47.939,47.88,47.939s47.88-21.446,47.88-47.939S74.399,0,47.939,0z
		 M47.939,87.467c-21.84,0-39.48-17.662-39.48-39.529S26.099,8.41,47.939,8.41s39.48,17.662,39.48,39.529
		S69.779,87.467,47.939,87.467z"/>
	<path d="M63.899,32.38l-22.26,22.287l-10.5-10.513c-1.68-1.682-4.2-1.682-5.88,0c-1.68,1.682-1.68,4.205,0,5.887l13.44,13.457
		c0.84,0.841,2.1,1.262,2.94,1.262c0.84,0,2.1-0.421,2.94-1.262l25.2-25.231c1.68-1.682,1.68-4.205,0-5.887
		C68.099,30.698,65.579,30.698,63.899,32.38z"/>
</g>
<g>
</g>
<g>
</g>
<g>
</g>
<g>
</g>
<g>
</g>
<g>
</g>
<g>
</g>
<g>
</g>
<g>
</g>
<g>
</g>
<g>
</g>
<g>
</g>
<g>
</g>
<g>
</g>
<g>
</g>
</svg>
