<?xml version="1.0" encoding="UTF-8"?><svg xmlns="http://www.w3.org/2000/svg" xmlns:xlink="http://www.w3.org/1999/xlink" viewBox="0 0 1086.27 963.19"><defs><style>.cls-1{fill:#f5c717;}.cls-1,.cls-2,.cls-3,.cls-4,.cls-5{stroke-width:0px;}.cls-2{fill:#a97029;}.cls-6{fill:#231f20;stroke-width:14px;}.cls-6,.cls-7{stroke:#231f20;}.cls-6,.cls-7,.cls-8{stroke-miterlimit:10;}.cls-7{stroke-width:16px;}.cls-7,.cls-5{fill:#fff;}.cls-3{fill:#fcb32a;}.cls-4{fill:#fee28a;}.cls-8{fill:url(#radial-gradient);stroke:#fff;stroke-width:10px;}</style><radialGradient id="radial-gradient" cx="489.26" cy="481.6" fx="489.26" fy="481.6" r="471.57" gradientUnits="userSpaceOnUse"><stop offset="0" stop-color="#674b9c"/><stop offset=".66" stop-color="#101028"/><stop offset=".86" stop-color="#12182b"/><stop offset="1" stop-color="#19202c"/></radialGradient></defs><g id="Layer_1"><g id="Layer_3"><rect class="cls-8" x="22.77" y="5" width="932.98" height="953.19" rx="466.49" ry="466.49"/><path class="cls-5" d="M654.54,63.46l-.79.64c1.86,2.06,3.65,4.18,5.59,6.17,19.05,19.49,38.12,38.96,57.18,58.44,4.57,4.67,8.98,9.48,13.79,13.91,1.04.96,3.45.54,5.23.75-.17-1.72-.09-3.51-.61-5.13-.3-.94-1.57-1.6-2.41-2.38-14.73-13.7-29.45-27.4-44.19-41.08-11.25-10.45-22.53-20.88-33.79-31.32ZM464.96,552.48c-.22.22-.45.45-.67.67,13.4,13.1,26.78,26.21,40.25,39.24.71.68,2.25.56,3.4.82-.25-1.22-.05-2.89-.82-3.6-5.39-5.01-10.95-9.83-16.49-14.69-8.55-7.49-17.11-14.96-25.67-22.44ZM885.18,440.3c6.07,1.02,9.3,4.37,10.65,10.02.73-6.06,4.36-8.8,10.19-9.96-5.96-1.17-9.47-4.21-10.31-10.17-1.21,5.74-4.27,9.22-10.53,10.11ZM744.03,240.3c1.64,5.33-.12,9.2-4.44,12.82,5.73-2.09,9.19,1.04,13.21,3.98-2.08-5.36.44-8.85,4.26-12.27-5.62,1.48-9.42-.62-13.03-4.53ZM527.04,488.8c-3.7-4.27-3.2-8.41-.74-13.13-4.52,3.6-8.9,3.14-13.67.53,3.49,4.41,3.86,8.58.69,13.51,4.63-3.97,8.89-3.5,13.72-.91ZM418.92,738.41h9.26v-9.13h-9.82c.18,2.87.38,6.28.56,9.13ZM78.07,646.51c.18,2.94.4,6.51.56,9.17,2.97-.18,6.33-.38,8.95-.54v-8.63h-9.51ZM116.18,367.96c-1.77,1.74-4.05,3.97-5.78,5.66,1.88,1.82,4.1,3.98,5.78,5.61,2.03-1.84,4.33-3.93,6.09-5.52-1.86-1.76-4.07-3.84-6.08-5.75ZM658.8,615.05c-1.83,2.57-3.85,4.16-3.72,5.58.13,1.47,2.33,2.76,3.63,4.14,1.46-1.39,3.78-2.62,4.11-4.23.25-1.22-2.03-2.92-4.02-5.48ZM50.29,499.27c-1.99,2.58-4.17,4.18-4.04,5.58.14,1.48,2.49,2.77,3.87,4.14,1.41-1.33,3.77-2.54,3.96-4.02.18-1.4-1.92-3.06-3.79-5.7ZM583.6,822.19c1.83-2.74,3.96-4.56,3.65-5.82-.39-1.61-2.76-2.77-4.27-4.13-1.22,1.47-3.34,2.9-3.39,4.4-.05,1.44,2.03,2.96,4.02,5.54ZM802.85,68.56c-1.9,2.62-3.91,4.19-3.8,5.6.11,1.44,2.3,2.73,3.58,4.09,1.46-1.37,3.73-2.57,4.1-4.17.27-1.19-1.94-2.91-3.88-5.51ZM111.06,862.41c-2.09,2.65-4.07,4.08-4.16,5.61-.07,1.23,2.2,3.67,3.34,3.61,1.52-.07,3.91-1.86,4.16-3.22.26-1.38-1.63-3.13-3.34-6.01ZM432.31,97.59c-2.89-1.75-4.66-3.65-6.03-3.42-1.52.26-2.68,2.47-4,3.84,1.44,1.24,2.8,3.34,4.33,3.46,1.39.12,2.98-1.92,5.69-3.88ZM539.71,688.54c-2.71-1.41-4.31-2.92-5.73-2.78-1.19.12-2.18,2.17-3.25,3.37,1.37,1.08,2.64,2.83,4.13,3.03,1.09.15,2.47-1.75,4.85-3.62ZM974.3,454.59c-2.48-1.54-3.9-3.12-5.16-3.02-1.33.11-2.51,1.84-3.75,2.86,1.24,1.2,2.33,3.08,3.77,3.37,1.11.22,2.65-1.56,5.14-3.21ZM807.44,767.89c-2.58-1.49-4.07-3.06-5.24-2.86-1.31.23-2.32,2.05-3.46,3.18,1.22,1.09,2.36,2.9,3.7,3.06,1.15.13,2.54-1.62,5-3.39ZM482.43,735.47c-1.85,2.23-3.7,3.49-3.62,4.63.08,1.23,1.97,2.36,3.06,3.53,1.2-1.04,3.13-1.95,3.37-3.17.22-1.13-1.37-2.59-2.81-4.98ZM819.09,712.97c-1.71,2.28-3.48,3.6-3.37,4.75.12,1.24,2.01,2.32,3.13,3.47,1.17-1.1,3.09-2.09,3.29-3.33.18-1.14-1.5-2.55-3.05-4.89ZM162.34,680.36c1.74-2.11,3.61-3.39,3.53-4.54-.08-1.21-2.01-3.16-3.19-3.2-1.2-.04-3.27,1.73-3.48,2.94-.19,1.12,1.57,2.55,3.14,4.8ZM980.62,237.39c-2.38-1.81-3.71-3.58-4.85-3.48-1.28.11-2.95,1.76-3.37,3.06-.22.7,1.72,2.81,2.87,2.95,1.26.16,2.73-1.2,5.35-2.53ZM307.02,194.22c-2.14-1.43-3.61-3.12-4.55-2.88-1.33.34-2.88,1.99-3.15,3.3-.16.78,2.02,2.86,3.05,2.8,1.35-.08,2.6-1.7,4.65-3.22ZM815.99,608.49c-1.6,1.68-3.34,2.7-3.37,3.75-.03,1.07,1.81,3.17,2.53,3.05,1.37-.21,3.06-1.48,3.57-2.71.3-.72-1.42-2.22-2.73-4.09ZM620.63,888.23c1.55-1.93,3.2-3.11,3.3-4.4.07-.97-2.02-3.07-2.82-2.92-1.35.24-3.06,1.69-3.42,2.95-.25.9,1.47,2.31,2.93,4.37ZM780.16,294.57c-1.57,1.91-3.26,3.07-3.16,4.06.11,1.12,1.69,2.54,2.93,2.91.65.19,2.66-1.54,2.73-2.5.09-1.13-1.24-2.37-2.51-4.47ZM154.17,797.29c-1.87-1.43-3.29-3.25-4.19-3.03-1.34.32-2.31,2.07-3.43,3.22,1.12.98,2.19,2.67,3.36,2.73,1.15.05,2.39-1.55,4.26-2.91ZM11.72,631.9c-2.05-1.3-3.41-2.81-4.48-2.65-1.15.18-2.9,2-2.82,2.98.09,1.07,1.94,2.71,3.11,2.78,1.08.07,2.28-1.6,4.2-3.12ZM933.69,886.73c-1.85-1.55-3.15-3.36-4-3.18-1.36.29-2.42,1.89-3.61,2.94,1.04,1.02,1.99,2.7,3.16,2.86,1.08.15,2.4-1.33,4.45-2.61ZM498.91,646.86c-1.33,1.96-2.88,3.25-2.71,4.27.18,1.07,2.03,2.63,3.1,2.6,1.02-.03,2.73-1.81,2.77-2.87.04-1.05-1.62-2.17-3.16-4ZM325.58,599.43c-1.75-1.21-3.05-2.74-3.88-2.54-1.23.3-2.13,1.85-3.17,2.86,1.13.95,2.16,2.43,3.43,2.65.82.14,1.98-1.56,3.62-2.97ZM512.88,855.9c-2.13-1.34-3.48-2.85-4.46-2.65-1.14.23-2.43,1.85-2.72,3.07-.15.61,1.8,2.39,2.77,2.37,1.18-.02,2.33-1.38,4.41-2.79ZM473.84,343.26c-1.39,1.78-3.01,3.03-2.79,3.75.37,1.2,1.79,2.56,3.04,2.87.69.17,2.73-1.66,2.7-2.55-.03-1.14-1.53-2.24-2.96-4.08ZM184.17,888c1.49-1.95,2.95-3.05,3.01-4.2.04-.95-1.76-2.87-2.46-2.76-1.24.2-2.98,1.49-3.19,2.57-.2,1,1.32,2.32,2.65,4.39ZM851.3,636.87c-1.87-1.38-2.97-2.82-3.99-2.77-1.02.05-2.72,1.56-2.74,2.46-.03.93,1.51,2.51,2.55,2.68.98.15,2.21-1.18,4.18-2.38ZM166.95,569.87c-2.24-1.28-3.67-2.74-4.69-2.51-1.1.24-2.36,2.01-2.52,3.23-.09.71,1.91,2.38,2.88,2.32,1.19-.08,2.29-1.51,4.33-3.03ZM527.77,552.99c-2.06-1.43-3.29-2.94-4.36-2.84-1.08.11-2.52,1.7-2.78,2.85-.16.69,1.62,2.52,2.55,2.54,1.2.02,2.43-1.27,4.59-2.55ZM438.25,544.59c-2.15-1.24-3.41-2.52-4.65-2.5-.94.01-2.79,1.96-2.59,2.54.4,1.19,1.82,2.74,2.95,2.84,1.07.1,2.31-1.46,4.3-2.88ZM757.49,764.89c-2.17-1.21-3.46-2.49-4.69-2.44-.94.04-2.68,1.97-2.5,2.7.3,1.19,1.83,2.83,2.92,2.89,1.1.06,2.29-1.59,4.28-3.15ZM109.66,744.72c-1.99-1.35-3.15-2.71-4.39-2.77-.89-.05-2.82,1.91-2.63,2.47.39,1.2,1.72,2.61,2.93,2.89.86.2,2.15-1.29,4.1-2.59ZM339.83,406.03c-1.43,1.66-3.07,2.8-2.9,3.56.26,1.17,1.77,2.08,2.76,3.1.9-.94,2.38-1.8,2.53-2.84.13-.93-1.2-2.06-2.38-3.83ZM549.59,427.43c-1.31,1.91-2.72,3.08-2.72,4.25,0,.87,2.1,2.6,2.79,2.4,1.17-.33,2.52-1.79,2.74-2.96.16-.83-1.43-1.96-2.82-3.69ZM46.65,825.6c-2.12-1.35-3.48-2.86-4.5-2.67-1.09.2-2.39,1.93-2.58,3.14-.11.69,1.82,2.39,2.79,2.36,1.17-.04,2.29-1.42,4.29-2.83ZM666.28,574.36c-2.01-1.27-3.14-2.56-4.16-2.48-1.05.08-2.72,1.46-2.77,2.34-.05.96,1.48,2.84,2.26,2.81,1.26-.05,2.48-1.33,4.67-2.67ZM509.42,434.67c-1.69-1.44-2.87-3.12-3.65-2.96-1.23.25-2.18,1.74-3.24,2.71.95.91,1.81,2.42,2.87,2.56.99.13,2.19-1.18,4.03-2.3ZM367.27,803.12c-1.81-1.29-2.9-2.67-3.93-2.63-1.07.04-2.08,1.46-3.11,2.27,1,1.04,1.84,2.59,3.05,2.94.79.23,2.12-1.3,3.99-2.58ZM534.95,292.09c-1.69-1.37-2.71-2.83-3.74-2.84-1.04,0-2.08,1.43-3.13,2.24.91,1.08,1.64,2.71,2.79,3.06.81.25,2.19-1.25,4.08-2.46ZM226.69,447.24c-1.98-1.15-3.16-2.39-4.12-2.24-1.02.15-1.82,1.62-2.72,2.52.97.86,1.89,2.31,2.93,2.4.95.08,2.03-1.31,3.91-2.68ZM169.73,377.15c-2.04-1.17-3.37-2.53-4.26-2.3-1.05.27-2.14,1.84-2.36,3-.11.56,1.76,2.12,2.65,2.06,1.09-.07,2.09-1.37,3.97-2.76ZM646.66,366.09c1.93,1.12,3.06,2.26,4.18,2.26.78,0,2.33-1.73,2.17-2.4-.24-1.07-1.58-2.61-2.51-2.65-1-.04-2.07,1.42-3.85,2.79ZM558.52,611.53c-1.34,1.89-2.77,3.03-2.65,3.98.13.98,1.75,2.44,2.75,2.46.89.02,2.44-1.58,2.54-2.58.1-.94-1.31-2.03-2.64-3.86ZM854.14,258.16c-1.69-1.47-2.86-3.16-3.62-3-1.25.26-2.22,1.72-3.31,2.67.95.93,1.8,2.44,2.87,2.6.97.15,2.19-1.16,4.06-2.28ZM269.38,753.96c-1.35,1.82-2.78,2.9-2.69,3.84.1,1.03,1.61,1.92,2.51,2.87.98-.91,2.58-1.72,2.75-2.76.16-.91-1.27-2.08-2.58-3.96ZM854.28,446.04c-1.94-1.28-3.13-2.68-4.07-2.54-1.07.17-1.91,1.71-2.84,2.66.97.87,1.87,2.35,2.91,2.45.98.09,2.1-1.27,4-2.57ZM805.06,518.95c-1.19,1.86-2.39,2.92-2.38,3.97,0,.81,1.54,1.6,2.4,2.39.89-.93,2.26-1.76,2.52-2.84.17-.73-1.22-1.8-2.53-3.53ZM847.55,841.42c1.22-1.75,2.74-3.04,2.49-3.79-.4-1.21-1.97-2.05-3.05-3.04-.9,1.13-2.33,2.18-2.52,3.41-.12.79,1.58,1.84,3.07,3.42ZM726.36,502.88c-1.95-1.24-3.16-2.6-4.1-2.44-1.06.18-1.87,1.72-2.79,2.66.98.83,1.91,2.24,2.96,2.32.97.08,2.06-1.26,3.93-2.54ZM23.16,309.26c-1.22,1.86-2.42,2.9-2.43,3.95-.01.83,1.62,2.49,2.17,2.36,1.17-.27,2.8-1.37,2.93-2.31.13-.94-1.31-2.1-2.67-4ZM376.84,501.23c1.2-1.81,2.4-2.84,2.41-3.89.01-.8-1.65-2.39-2.26-2.27-1.13.23-2.74,1.4-2.84,2.31-.11.94,1.34,2.04,2.69,3.85ZM478.29,86.03c-1.05,1.94-2.14,3.08-2.08,4.16.05.79,1.62,1.5,2.51,2.24.84-.99,2.16-1.91,2.34-3.01.12-.75-1.35-1.74-2.76-3.39ZM123.21,514.72c-1.32,2.07-2.51,3.12-2.5,4.17,0,.89,1.38,1.78,2.15,2.67.98-.85,2.59-1.59,2.77-2.58.17-.94-1.14-2.14-2.42-4.26ZM2.85,576.38c-1.38,1.6-2.7,2.49-2.85,3.54-.1.72,1.63,2.44,2.21,2.31,1.13-.25,2.45-1.32,2.86-2.36.24-.62-1.1-1.82-2.22-3.48ZM536.87,66.33c1.02-1.86,2.16-2.98,1.96-3.81-.21-.9-1.66-1.54-2.56-2.29-.76.9-2.07,1.79-2.1,2.72-.03.85,1.32,1.74,2.7,3.38Z"/><path class="cls-5" d="M147.66,175.31c19.67,20.71,39.35,41.39,59,62.12,25.73,27.15,51.44,54.33,77.15,81.49,1.46,1.55,3.68,2.85,4.21,4.71.91,3.2.77,6.76,1.07,10.17-3.1-.42-7.31.41-9.12-1.49-8.39-8.78-16.1-18.33-24.07-27.58-33.28-38.64-66.58-77.26-99.84-115.93-3.39-3.94-6.52-8.15-9.77-12.23l1.38-1.27Z"/><path class="cls-5" d="M744.03,216.72c3.61,4.05,7.41,6.22,13.03,4.69-3.82,3.55-6.33,7.16-4.26,12.72-4.02-3.05-7.49-6.29-13.21-4.13,4.32-3.76,6.08-7.76,4.44-13.29Z"/><path class="cls-5" d="M802.85,38.74c1.94,2.7,4.15,4.48,3.88,5.71-.37,1.66-2.64,2.9-4.1,4.33-1.28-1.41-3.47-2.75-3.58-4.24-.11-1.46,1.9-3.08,3.8-5.8Z"/><path class="cls-5" d="M432.31,68.82c-2.71,2.04-4.3,4.14-5.69,4.02-1.54-.13-2.9-2.31-4.33-3.59,1.32-1.41,2.48-3.71,4-3.98,1.37-.24,3.14,1.73,6.03,3.54Z"/><path class="cls-5" d="M980.62,213.7c-2.62,1.38-4.09,2.79-5.35,2.63-1.15-.15-3.09-2.34-2.87-3.06.42-1.35,2.09-3.06,3.37-3.17,1.15-.1,2.47,1.73,4.85,3.61Z"/><path class="cls-5" d="M534.95,270.39c-1.89,1.25-3.27,2.8-4.08,2.54-1.15-.36-1.88-2.05-2.79-3.17,1.04-.83,2.09-2.32,3.13-2.32,1.03,0,2.04,1.52,3.74,2.94Z"/><path class="cls-5" d="M854.14,235.23c-1.86,1.16-3.08,2.52-4.06,2.36-1.07-.17-1.93-1.74-2.87-2.7,1.09-.99,2.07-2.5,3.31-2.77.76-.16,1.93,1.59,3.62,3.11Z"/><path class="cls-5" d="M478.29,56.84c1.41,1.71,2.88,2.74,2.76,3.52-.18,1.13-1.5,2.09-2.34,3.12-.89-.77-2.46-1.5-2.51-2.32-.06-1.12,1.03-2.3,2.08-4.31Z"/><path class="cls-5" d="M536.87,36.43c-1.39-1.7-2.74-2.63-2.7-3.51.04-.96,1.35-1.88,2.1-2.82.91.78,2.36,1.44,2.56,2.37.19.87-.94,2.03-1.96,3.95Z"/></g></g><g id="Layer_4"><path class="cls-7" d="M558.34,608.59c-11.08,3.98-21.08,6.47-21.84,6.66-10.67,2.63-19.96,4.04-27.11,4.83-1.79,7.17-4.43,15.31-8.4,23.93-9.28,20.12-21.76,34.06-31.09,42.73,1.41-5.73,2.9-14.73,1.68-25.64-1.46-13.03-6.11-22.75-9.24-28.2-14.25.68-34.15,1.03-57.82-.6-36.28-2.49-65.53-4.5-93.41-16.49-9.49-4.08-75.13-33.52-85.7-89.74-2.68-14.25-1.87-27.26-1.72-28.84.91-9.59,4.04-26.85,21.31-52.44,18.52-27.44,39.1-44.57,52.89-55.23,8.88-6.87,16.73-12.05,22.46-15.61,0,0,0,0,0,0,.73-.37,50.36-27.72,71.65-37.55,18.12-8.37,32.24-11.68,51.85-16.29,30.79-7.23,114.93-26.99,197.13,11.19,24.29,11.28,47.86,22.63,61.65,48.63,10.5,19.8,16.23,49.83,11.15,78.28,0,.04-.02.12-.04.21-12.23,67.81-74.55,108.98-88.9,118.46,0,0-25.98,17.16-66.51,31.71Z"/><path class="cls-4" d="M714.32,486.7c39.74,24.89,45.48,38.18,43.48,45.71-7.95,29.84-153.71,28.92-279.9-13.26-111.33-37.21-226.34-112.15-215.68-145.47,5.55-17.36,44.39-20.79,78.79-20.68,11.69-6.83,24.91-13.7,39.67-20.08,28.42-12.3,54.85-19.48,77.08-23.76-30.47-9.4-77.79-20.78-136.27-21.45-39.97-.46-172.82-1.9-191.02,45.65-22.84,59.68,139.01,207.61,327.1,266.13,177.58,55.25,395.11,34.14,412.81-33.32,7.16-27.27-15.28-73.79-149.7-157.91,2.1,9.93,4,24.27,2.4,41.36-1.44,15.49-5.27,28.12-8.75,37.08Z"/><path class="cls-2" d="M363.92,340.72c-53.16-.99-119.95,2.64-128.58,30.14-12.29,39.18,97.57,113.59,192.69,151.79,154.28,61.96,339.82,57.39,352.1,13.17,3.2-11.53-3.6-32.1-59.6-70.59-2.07,7.15-4.14,14.31-6.21,21.46,40.07,25.12,45.44,38.34,43.48,45.71-8.47,31.75-173.58,30.52-316.49-26.71-87.66-35.11-189.17-100.65-179.09-132.01,5.49-17.1,43.14-20.8,78.79-20.68,7.64-4.09,15.28-8.18,22.91-12.27Z"/><path class="cls-3" d="M395.67,327.38c-106.91-15.54-191.45-3-201.16,29.04-11.02,36.37,70.92,109.09,116.82,140.43,3.02,2.06,5.27,3.56,6.56,4.43,47.55,31.89,89.4,46.65,126.15,59.61,86.22,30.41,152.95,35.59,190.61,38.12,33.11,2.22,56.11,1.49,80.99-3.18,26.16-4.92,92.15-17.33,99.92-52.96,4.79-21.97-13.97-43.96-30.26-62.97-21.78-25.41-46.5-38.66-61.52-45.25.08,5.31-.15,11.34-.99,17.93-.58,4.59-1.37,8.82-2.26,12.66,54.84,37.63,62.97,58.44,59.6,70.59-11.77,42.38-182.22,46.65-325-3.36-112.78-39.5-232.5-120.84-219.79-161.61,5.01-16.06,32.34-31.52,128.58-30.14,10.59-4.45,21.17-8.9,31.76-13.34Z"/><path class="cls-6" d="M81.77,541.99c-6.78,0-12.33-2.69-16.64-8.08-4.31-5.38-6.46-12.78-6.46-22.18,0-8.58,1.4-17.04,4.2-25.4,2.8-8.35,6.73-15.86,11.79-22.52,5.06-6.66,11.07-12.02,18.01-16.09,6.95-4.06,14.62-6.09,23.02-6.09,5.28,0,9.8,1.73,13.57,5.2,3.77,3.47,5.65,8.12,5.65,13.96v2.6c0,.27-.06.59-.16.96l-21.16,4.79c-1.29-2.28-2.8-3.42-4.52-3.42-2.58,0-5.31,1.78-8.16,5.34-2.85,3.56-5.57,7.8-8.16,12.73-1.72,3.29-3.26,6.66-4.6,10.13-1.35,3.47-2.4,6.71-3.15,9.72-.75,3.01-1.13,5.48-1.13,7.39,0,2.83.48,4.88,1.45,6.16.75,1.19,1.94,1.78,3.55,1.78s3.39-.66,5.33-1.99c1.94-1.32,3.74-2.99,5.41-5,1.67-2.01,2.77-4.02,3.31-6.02l18.42,6.3c-5.28,10.22-11.55,17.73-18.82,22.52-7.27,4.79-14.19,7.19-20.76,7.19Z"/><path class="cls-6" d="M148.48,542.26c-7.11,0-12.92-2.33-17.45-6.98s-6.79-11.68-6.79-21.08c0-5.2.75-10.68,2.26-16.43,1.51-5.75,3.61-11.41,6.3-16.98,2.69-5.57,5.82-10.72,9.37-15.47,5.71-7.67,12.28-13.92,19.71-18.76,7.43-4.84,15.24-7.26,23.42-7.26,6.46,0,11.44,1.39,14.94,4.18,3.5,2.79,5.95,6.34,7.35,10.68,1.4,4.34,2.1,8.83,2.1,13.49,0,10.86-1.97,20.97-5.9,30.32-3.93,9.36-9.02,17.27-15.27,23.75-6.25,6.66-12.9,11.75-19.95,15.26-7.05,3.51-13.76,5.27-20.11,5.27ZM157.21,519.67c4.85,0,9.13-1.37,12.84-4.11,3.72-2.74,6.87-6.23,9.45-10.47,2.59-4.24,4.52-8.69,5.82-13.35s1.94-8.85,1.94-12.6c0-1.46-.16-3.03-.48-4.72-.32-1.69-1.03-3.17-2.1-4.45-1.08-1.28-2.75-1.92-5.01-1.92-4.95,0-9.42,1.53-13.41,4.59-3.99,3.06-7.32,6.91-10.02,11.57-2.69,4.75-4.69,9.4-5.98,13.96-1.29,4.57-1.94,8.72-1.94,12.46,0,1.92.81,3.9,2.42,5.96,1.62,2.05,3.77,3.08,6.46,3.08Z"/><path class="cls-6" d="M194.04,540.89c4.74-12.23,9.26-24.14,13.57-35.73,1.83-4.74,3.72-9.81,5.65-15.2,1.94-5.38,3.88-10.79,5.82-16.22,1.94-5.43,3.77-10.66,5.49-15.68,1.72-5.02,3.18-9.49,4.36-13.42,5.92,0,11.52-.27,16.8-.82,2.69-.27,5.47-.55,8.32-.82,2.85-.27,5.79-.5,8.8-.68l-.97,6.71c-.22,1.28-.43,2.58-.65,3.9-.22,1.32-.43,2.67-.65,4.04-.22,1.37-.48,2.76-.81,4.18-.32,1.42-.59,2.85-.81,4.31-.43,2.83-1.08,6.78-1.94,11.84-.86,5.07-1.89,10.57-3.07,16.5h2.1c3.12-6.94,5.71-12.71,7.75-17.32,2.04-4.61,3.72-8.37,5.01-11.29,1.83-4.29,3.82-8.62,5.98-13.01,2.15-4.38,3.93-7.76,5.33-10.13,2.58-.18,5.68-.48,9.29-.89,3.61-.41,7.27-.89,10.99-1.44,3.72-.55,6.92-1,9.61-1.37-1.51,7.67-2.88,15.4-4.12,23.21-1.24,7.8-2.32,15.24-3.23,22.32-.92,7.07-1.7,13.44-2.34,19.1-.65,5.66-1.24,11.25-1.78,16.77-.54,5.52-1.08,10.98-1.62,16.36l-28.11,4.24c0-.18.16-2.24.48-6.16.32-3.92.86-8.81,1.62-14.65.75-5.84,1.51-11.38,2.26-16.63.75-5.25,1.51-9.56,2.26-12.94h-1.45c-2.69,6.94-5.95,14.51-9.77,22.73-3.82,8.21-7.57,17.3-11.23,27.24-3.77.09-7,.21-9.69.34-2.69.14-5.82.3-9.37.48l5.17-50.79h-2.42c-.11,1.01-.59,2.94-1.45,5.82-.86,2.87-1.89,6.16-3.07,9.86-1.19,3.7-2.42,7.37-3.72,11.02-4.85,14.33-7.43,21.9-7.75,22.73l-26.65,1.51Z"/><path class="cls-6" d="M299.68,541.58c1.51-5.29,3.01-11.29,4.52-18,1.51-6.71,3.01-13.67,4.52-20.88,1.51-7.21,2.91-14.15,4.2-20.81,1.18-5.84,2.34-11.77,3.47-17.8,1.13-6.02,2.23-12.09,3.31-18.21l25.2-3.42-7.27,36.01c-1.62,8.49-3.04,16.11-4.28,22.86-1.24,6.76-2.42,13.14-3.55,19.17s-2.29,12.18-3.47,18.48c-2.05,0-4.52.12-7.43.34-2.91.23-5.82.5-8.72.82-2.91.32-5.36.62-7.35.89-1.99.27-3.04.46-3.15.55Z"/><path class="cls-6" d="M360.91,541.99c-6.78,0-12.33-2.69-16.64-8.08-4.31-5.38-6.46-12.78-6.46-22.18,0-8.58,1.4-17.04,4.2-25.4,2.8-8.35,6.73-15.86,11.79-22.52,5.06-6.66,11.07-12.02,18.01-16.09,6.95-4.06,14.62-6.09,23.02-6.09,5.28,0,9.8,1.73,13.57,5.2,3.77,3.47,5.65,8.12,5.65,13.96v2.6c0,.27-.06.59-.16.96l-21.16,4.79c-1.29-2.28-2.8-3.42-4.52-3.42-2.58,0-5.31,1.78-8.16,5.34-2.85,3.56-5.57,7.8-8.16,12.73-1.72,3.29-3.26,6.66-4.6,10.13-1.35,3.47-2.4,6.71-3.15,9.72-.75,3.01-1.13,5.48-1.13,7.39,0,2.83.48,4.88,1.45,6.16.75,1.19,1.94,1.78,3.55,1.78s3.39-.66,5.33-1.99c1.94-1.32,3.74-2.99,5.41-5,1.67-2.01,2.77-4.02,3.31-6.02l18.42,6.3c-5.28,10.22-11.55,17.73-18.82,22.52-7.27,4.79-14.19,7.19-20.76,7.19Z"/><path class="cls-6" d="M456.54,544.18c-3.23,0-6.52-.59-9.85-1.78-3.34-1.19-6.14-3.01-8.4-5.48-2.26-2.46-3.39-5.61-3.39-9.45v-1.1c0-.46.05-.82.16-1.09.32-2.37.78-5.48,1.37-9.31.59-3.83,1.32-8.01,2.18-12.53.86-4.52,1.75-9.01,2.66-13.48.91-4.47,1.75-8.53,2.5-12.18,1.62-7.3,2.91-13.19,3.88-17.66.97-4.47,1.75-7.92,2.34-10.34.59-2.42,1.05-4.22,1.37-5.41l26.65-2.19c-1.4,5.57-2.72,10.84-3.96,15.81-1.24,4.98-2.4,9.7-3.47,14.17l-7.43,30.26c-.65,2.28-1.13,4.2-1.45,5.75-.43,1.46-.89,3.31-1.37,5.54-.48,2.24-.73,4.27-.73,6.09,0,1.46.43,2.67,1.29,3.63.86.96,1.94,1.44,3.23,1.44,1.83,0,3.34-.59,4.52-1.78,1.18-1.19,2.15-2.65,2.91-4.38.75-1.73,1.35-3.49,1.78-5.27.43-1.78.81-3.22,1.13-4.31,1.08-4.2,2.07-8.28,2.99-12.25.91-3.97,1.88-8.19,2.91-12.66,1.02-4.47,2.18-9.63,3.47-15.47.86-4.01,1.75-8.1,2.67-12.25.91-4.15,1.8-8.37,2.66-12.66l24.55-1.37-5.65,26.42c-.76,3.38-1.59,7.17-2.5,11.36-.92,4.2-1.91,8.44-2.99,12.73-1.08,4.29-2.07,8.35-2.99,12.18-.92,3.83-1.75,7.12-2.5,9.86-2.15,7.48-5.49,13.35-10.01,17.59-4.52,4.24-9.51,7.23-14.94,8.97-5.44,1.73-10.64,2.6-15.59,2.6Z"/><path class="cls-6" d="M498.38,542.4c3.23-13.14,6.3-25.87,9.21-38.2,2.37-11.59,4.69-22.73,6.95-33.4,2.26-10.68,3.88-20.49,4.85-29.43.75.09,1.43.14,2.02.14h4.93c2.8,0,5.92-.07,9.37-.21s6.62-.25,9.53-.34c.75,3.2,1.48,6.34,2.18,9.45.7,3.1,1.32,6.12,1.86,9.04.54,2.56,1.13,5.18,1.78,7.87.65,2.69,1.29,5.41,1.94,8.15.54,2.74,1.1,5.27,1.69,7.6.59,2.33,1.1,4.45,1.54,6.37,1.29-5.38,2.5-10.68,3.63-15.88,1.13-5.2,2.23-9.9,3.31-14.1l4.69-18.34,19.71-2.05c-1.83,6.94-3.55,13.74-5.17,20.4-1.62,6.66-3.13,13.1-4.52,19.3-2.69,11.14-5.06,21.63-7.11,31.49-2.05,9.86-3.61,18.44-4.68,25.74,1.18,0,.99.12-.57.34-1.56.23-3.85.55-6.87.96-3.02.41-6.25.94-9.69,1.57-3.45.64-6.52,1.42-9.21,2.33-.32-3.65-.65-7.21-.97-10.68-.32-3.47-.7-6.84-1.13-10.13-.65-5.84-1.4-11.64-2.26-17.39s-1.72-10.31-2.58-13.69c-.75,4.02-1.67,8.6-2.75,13.76-1.08,5.16-2.26,10.34-3.55,15.54l-4.52,19.17-23.58,4.65Z"/><path class="cls-6" d="M571.4,541.58c1.51-5.29,3.01-11.29,4.52-18,1.51-6.71,3.01-13.67,4.52-20.88,1.51-7.21,2.91-14.15,4.2-20.81,1.18-5.84,2.34-11.77,3.47-17.8,1.13-6.02,2.23-12.09,3.31-18.21l25.2-3.42-7.27,36.01c-1.62,8.49-3.04,16.11-4.28,22.86-1.24,6.76-2.42,13.14-3.56,19.17-1.13,6.02-2.29,12.18-3.47,18.48-2.05,0-4.52.12-7.43.34-2.91.23-5.82.5-8.72.82-2.91.32-5.36.62-7.35.89-1.99.27-3.04.46-3.15.55Z"/><path class="cls-6" d="M612.75,542.95c.75-6.39,1.45-12.73,2.1-19.03.65-6.3,1.24-12.5,1.78-18.62,1.18-11.13,2.13-22.09,2.83-32.86.7-10.77,1.16-20.85,1.37-30.26,8.4,0,16.8-.32,25.2-.96-.54,5.29-1.08,10.11-1.62,14.44-.54,4.34-1.02,8.19-1.45,11.57l-1.94,16.57c-.54,5.02-1,9.26-1.37,12.73-.38,3.47-.73,6.66-1.05,9.58-.32,2.92-.75,6.12-1.29,9.58h2.91l18.09-72.83,8.88-.41c1.4-.09,2.8-.16,4.2-.21,1.4-.05,2.85-.11,4.36-.21,1.51-.09,2.93-.18,4.28-.27,1.35-.09,2.61-.18,3.8-.27-2.05,5.39-4.12,11.41-6.22,18.07-2.1,6.66-4.2,13.55-6.3,20.67-2.1,7.12-4.23,14.15-6.38,21.08-1.72,5.84-3.45,11.8-5.17,17.87-1.72,6.07-3.45,12.21-5.17,18.41l-41.84,5.34Z"/><path class="cls-6" d="M665.73,541.85l21.16-97.34,51.05-3.7c-.75,2.01-1.4,4.06-1.94,6.16-.54,1.73-1.05,3.54-1.53,5.41-.49,1.87-.89,3.54-1.21,5-1.4.09-3.39.16-5.98.21-2.58.05-5.23.09-7.92.14-2.69.05-5.01.07-6.95.07h-3.07l-5.65,24.51,9.37-.41c1.18-.09,2.4-.14,3.63-.14h6.87c.97,0,1.72-.05,2.26-.14-.22,1.28-.4,2.53-.56,3.77-.16,1.23-.35,2.49-.56,3.77l-1.45,7.53c-.54.09-1.24.14-2.1.14h-3.07c-1.19.09-2.42.14-3.72.14s-2.53.05-3.71.14c-1.4.09-2.86.14-4.36.14s-3.13.05-4.85.14l-5.49,25.19,23.59-3.15-1.62,15.61-52.18,6.84Z"/><path class="cls-6" d="M720.17,541.85l8.4-35.59c1.29-6.57,2.69-13.32,4.2-20.26,1.51-6.94,2.93-13.78,4.28-20.54,1.35-6.75,2.4-13.1,3.15-19.03,6.14-1.64,12.76-2.85,19.87-3.63,7.11-.77,14.16-1.16,21.16-1.16,8.18,0,13.76,1.51,16.72,4.52,2.96,3.01,4.44,7.07,4.44,12.18,0,4.65-1.29,9.33-3.88,14.03-2.58,4.7-5.95,8.95-10.1,12.73-4.15,3.79-8.7,6.78-13.65,8.97,1.94,3.65,4.01,7.65,6.22,11.98,2.21,4.34,4.28,8.47,6.22,12.39,1.07,2.28,2.18,4.57,3.31,6.85,1.13,2.28,2.23,4.57,3.31,6.84l-25.04,7.39-5.82-16.43c-1.62-4.56-3.1-8.97-4.44-13.21-1.35-4.24-2.13-7.23-2.34-8.97l-2.1.55c-.32,1.46-.67,3.04-1.05,4.72-.38,1.69-.78,3.54-1.21,5.54-.43,2.01-.86,3.95-1.29,5.82-.43,1.87-.86,3.72-1.29,5.54l-2.91,13.01-26.17,5.75ZM758.14,482.44c1.94-.18,4.33-.89,7.19-2.12,2.85-1.23,5.71-2.76,8.56-4.59,2.85-1.83,5.25-3.7,7.19-5.61,1.94-1.92,2.91-3.6,2.91-5.07,0-1.82-1.27-3.03-3.8-3.63-2.53-.59-5.84-.89-9.93-.89h-3.55c-.65.09-1.24.14-1.78.14h-1.62l-5.17,21.77Z"/><path class="cls-6" d="M818.87,541.99c-4.31,0-8.62-.98-12.92-2.94-4.31-1.96-8.46-5.09-12.44-9.38l11.96-19.85c1.18,1.73,2.93,3.38,5.25,4.93,2.32,1.55,4.77,2.79,7.35,3.7,2.58.91,4.79,1.37,6.62,1.37,2.8,0,5.46-.73,8-2.19,2.53-1.46,3.8-3.42,3.8-5.89,0-3.19-1.72-6.11-5.17-8.76-3.45-2.65-7.32-5.25-11.63-7.8-4.2-2.55-8.05-5.45-11.55-8.69-3.5-3.24-5.25-6.96-5.25-11.16,0-4.74,1.62-9.15,4.85-13.21,3.23-4.06,7.43-7.62,12.6-10.68,5.17-3.06,10.69-5.43,16.56-7.12,5.87-1.69,11.44-2.53,16.72-2.53,3.77,0,7.27.53,10.5,1.57,3.23,1.05,5.82,2.76,7.75,5.13,1.94,2.37,2.91,5.57,2.91,9.58,0,.64-.03,1.28-.08,1.92-.06.64-.14,1.28-.24,1.92-.11.64-.24,1.3-.4,1.99-.16.68-.3,1.39-.4,2.12l-23.42,5.75c.21-.73.4-1.46.56-2.19.16-.73.24-1.46.24-2.19,0-2.74-.56-4.72-1.7-5.96-1.13-1.23-2.61-1.85-4.44-1.85-.97,0-2.37.43-4.2,1.3-1.83.87-3.47,2.05-4.93,3.56-1.45,1.51-2.18,3.17-2.18,5,0,3.01,1.48,5.5,4.44,7.46,2.96,1.96,6.38,3.95,10.26,5.96,1.83.91,3.88,2.35,6.14,4.31,2.26,1.96,4.22,4.61,5.9,7.94,1.67,3.33,2.5,7.6,2.5,12.8,0,6.76-1.97,12.69-5.9,17.8-3.93,5.11-9.24,9.1-15.91,11.98-6.68,2.87-14.05,4.31-22.13,4.31Z"/><path class="cls-6" d="M862,541.85l21.16-97.34,51.05-3.7c-.75,2.01-1.4,4.06-1.94,6.16-.54,1.73-1.05,3.54-1.53,5.41-.49,1.87-.89,3.54-1.21,5-1.4.09-3.39.16-5.98.21-2.58.05-5.23.09-7.92.14-2.69.05-5.01.07-6.95.07h-3.07l-5.65,24.51,9.37-.41c1.18-.09,2.4-.14,3.63-.14h6.87c.97,0,1.72-.05,2.26-.14-.22,1.28-.4,2.53-.56,3.77-.16,1.23-.35,2.49-.56,3.77l-1.45,7.53c-.54.09-1.24.14-2.1.14h-3.07c-1.19.09-2.42.14-3.72.14s-2.53.05-3.71.14c-1.4.09-2.86.14-4.36.14s-3.13.05-4.85.14l-5.49,25.19,23.59-3.15-1.62,15.61-52.18,6.84Z"/><path class="cls-1" d="M81.77,541.99c-6.78,0-12.33-2.69-16.64-8.08-4.31-5.38-6.46-12.78-6.46-22.18,0-8.58,1.4-17.04,4.2-25.4,2.8-8.35,6.73-15.86,11.79-22.52,5.06-6.66,11.07-12.02,18.01-16.09,6.95-4.06,14.62-6.09,23.02-6.09,5.28,0,9.8,1.73,13.57,5.2,3.77,3.47,5.65,8.12,5.65,13.96v2.6c0,.27-.06.59-.16.96l-21.16,4.79c-1.29-2.28-2.8-3.42-4.52-3.42-2.58,0-5.31,1.78-8.16,5.34-2.85,3.56-5.57,7.8-8.16,12.73-1.72,3.29-3.26,6.66-4.6,10.13-1.35,3.47-2.4,6.71-3.15,9.72-.75,3.01-1.13,5.48-1.13,7.39,0,2.83.48,4.88,1.45,6.16.75,1.19,1.94,1.78,3.55,1.78s3.39-.66,5.33-1.99c1.94-1.32,3.74-2.99,5.41-5,1.67-2.01,2.77-4.01,3.31-6.02l18.42,6.3c-5.28,10.22-11.55,17.73-18.82,22.52-7.27,4.79-14.19,7.19-20.76,7.19Z"/><path class="cls-1" d="M148.48,542.26c-7.11,0-12.92-2.33-17.45-6.98-4.52-4.65-6.78-11.68-6.78-21.08,0-5.2.75-10.68,2.26-16.43,1.51-5.75,3.61-11.41,6.3-16.98,2.69-5.57,5.82-10.72,9.37-15.47,5.71-7.67,12.28-13.92,19.71-18.76,7.43-4.84,15.24-7.26,23.42-7.26,6.46,0,11.44,1.39,14.94,4.18,3.5,2.79,5.95,6.34,7.35,10.68,1.4,4.34,2.1,8.83,2.1,13.49,0,10.86-1.97,20.97-5.9,30.32-3.93,9.36-9.02,17.27-15.27,23.75-6.25,6.66-12.9,11.75-19.95,15.26-7.06,3.51-13.76,5.27-20.11,5.27ZM157.2,519.67c4.85,0,9.13-1.37,12.84-4.11,3.72-2.74,6.87-6.23,9.45-10.47,2.58-4.24,4.52-8.69,5.82-13.35,1.29-4.65,1.94-8.85,1.94-12.59,0-1.46-.16-3.03-.48-4.72-.32-1.69-1.02-3.17-2.1-4.45-1.08-1.28-2.75-1.92-5.01-1.92-4.95,0-9.42,1.53-13.41,4.59-3.99,3.06-7.33,6.91-10.02,11.57-2.69,4.75-4.68,9.4-5.98,13.96-1.29,4.57-1.94,8.72-1.94,12.46,0,1.92.81,3.9,2.42,5.96,1.62,2.05,3.77,3.08,6.46,3.08Z"/><path class="cls-1" d="M194.04,540.89c4.74-12.23,9.26-24.14,13.57-35.73,1.83-4.75,3.72-9.81,5.65-15.2,1.94-5.38,3.88-10.79,5.82-16.22,1.94-5.43,3.77-10.65,5.49-15.68,1.72-5.02,3.18-9.49,4.36-13.42,5.92,0,11.52-.27,16.8-.82,2.69-.27,5.46-.55,8.32-.82,2.85-.27,5.79-.5,8.8-.68l-.97,6.71c-.22,1.28-.43,2.58-.65,3.9-.22,1.32-.43,2.67-.65,4.04-.22,1.37-.48,2.76-.81,4.18-.32,1.42-.59,2.85-.81,4.31-.43,2.83-1.08,6.78-1.94,11.84-.86,5.07-1.89,10.56-3.07,16.5h2.1c3.12-6.93,5.71-12.71,7.75-17.32,2.04-4.61,3.72-8.37,5.01-11.29,1.83-4.29,3.82-8.62,5.98-13.01,2.15-4.38,3.93-7.76,5.33-10.13,2.58-.18,5.68-.48,9.29-.89,3.61-.41,7.27-.89,10.98-1.44,3.72-.55,6.92-1,9.61-1.37-1.51,7.67-2.88,15.4-4.12,23.21-1.24,7.8-2.32,15.24-3.23,22.31-.92,7.07-1.7,13.44-2.34,19.1-.65,5.66-1.24,11.25-1.78,16.77-.54,5.52-1.08,10.98-1.62,16.36l-28.11,4.24c0-.18.16-2.24.48-6.16.32-3.92.86-8.81,1.62-14.65.75-5.84,1.51-11.38,2.26-16.63.75-5.25,1.51-9.56,2.26-12.94h-1.45c-2.69,6.94-5.95,14.51-9.77,22.73-3.82,8.21-7.57,17.3-11.23,27.24-3.77.09-7,.21-9.69.34-2.69.14-5.82.3-9.37.48l5.17-50.79h-2.42c-.11,1-.59,2.94-1.45,5.82-.86,2.88-1.89,6.16-3.07,9.86-1.19,3.7-2.42,7.37-3.72,11.02-4.85,14.33-7.43,21.9-7.75,22.73l-26.65,1.51Z"/><path class="cls-1" d="M299.68,541.58c1.51-5.29,3.01-11.29,4.52-18,1.51-6.71,3.01-13.67,4.52-20.88,1.51-7.21,2.91-14.15,4.2-20.81,1.18-5.84,2.34-11.77,3.47-17.8,1.13-6.02,2.23-12.09,3.31-18.21l25.2-3.42-7.27,36.01c-1.62,8.49-3.04,16.11-4.28,22.86-1.24,6.75-2.42,13.14-3.55,19.17s-2.29,12.18-3.47,18.48c-2.05,0-4.52.12-7.43.34-2.91.23-5.82.5-8.72.82-2.91.32-5.36.62-7.35.89-1.99.27-3.04.46-3.15.55Z"/><path class="cls-1" d="M360.91,541.99c-6.78,0-12.33-2.69-16.64-8.08-4.31-5.38-6.46-12.78-6.46-22.18,0-8.58,1.4-17.04,4.2-25.4,2.8-8.35,6.73-15.86,11.79-22.52,5.06-6.66,11.07-12.02,18.01-16.09,6.95-4.06,14.62-6.09,23.02-6.09,5.28,0,9.8,1.73,13.57,5.2,3.77,3.47,5.65,8.12,5.65,13.96v2.6c0,.27-.06.59-.16.96l-21.16,4.79c-1.29-2.28-2.8-3.42-4.52-3.42-2.58,0-5.31,1.78-8.16,5.34-2.85,3.56-5.57,7.8-8.16,12.73-1.72,3.29-3.26,6.66-4.6,10.13-1.35,3.47-2.4,6.71-3.15,9.72-.75,3.01-1.13,5.48-1.13,7.39,0,2.83.48,4.88,1.45,6.16.75,1.19,1.94,1.78,3.55,1.78s3.39-.66,5.33-1.99c1.94-1.32,3.74-2.99,5.41-5,1.67-2.01,2.77-4.01,3.31-6.02l18.42,6.3c-5.28,10.22-11.55,17.73-18.82,22.52-7.27,4.79-14.19,7.19-20.76,7.19Z"/><path class="cls-1" d="M456.54,544.18c-3.23,0-6.52-.59-9.85-1.78-3.34-1.19-6.14-3.01-8.4-5.48-2.26-2.46-3.39-5.61-3.39-9.45v-1.09c0-.46.05-.82.16-1.09.32-2.37.78-5.48,1.37-9.31.59-3.83,1.32-8.01,2.18-12.53.86-4.52,1.75-9.01,2.67-13.48.91-4.47,1.75-8.53,2.5-12.18,1.62-7.3,2.91-13.19,3.88-17.66.97-4.47,1.75-7.92,2.34-10.34.59-2.42,1.05-4.22,1.37-5.41l26.65-2.19c-1.4,5.57-2.72,10.84-3.96,15.81-1.24,4.98-2.4,9.7-3.47,14.17l-7.43,30.26c-.65,2.28-1.13,4.2-1.45,5.75-.43,1.46-.89,3.31-1.37,5.54-.48,2.24-.73,4.27-.73,6.09,0,1.46.43,2.67,1.29,3.63.86.96,1.94,1.44,3.23,1.44,1.83,0,3.34-.59,4.52-1.78,1.18-1.19,2.15-2.65,2.91-4.38.75-1.73,1.35-3.49,1.78-5.27.43-1.78.81-3.22,1.13-4.31,1.08-4.2,2.07-8.28,2.99-12.25.91-3.97,1.88-8.19,2.91-12.66,1.02-4.47,2.18-9.63,3.47-15.47.86-4.02,1.75-8.1,2.67-12.25.91-4.15,1.8-8.37,2.66-12.66l24.55-1.37-5.65,26.42c-.75,3.38-1.59,7.17-2.5,11.36-.92,4.2-1.91,8.44-2.99,12.73-1.08,4.29-2.07,8.35-2.99,12.18-.92,3.83-1.75,7.12-2.5,9.86-2.16,7.49-5.49,13.35-10.02,17.59-4.52,4.24-9.51,7.24-14.94,8.97-5.44,1.73-10.64,2.6-15.59,2.6Z"/><path class="cls-1" d="M498.38,542.4c3.23-13.14,6.3-25.88,9.21-38.2,2.37-11.59,4.68-22.73,6.95-33.4,2.26-10.68,3.88-20.49,4.85-29.43.75.09,1.43.14,2.02.14h4.93c2.8,0,5.92-.07,9.37-.21,3.45-.14,6.62-.25,9.53-.34.75,3.2,1.48,6.34,2.18,9.45.7,3.1,1.32,6.12,1.86,9.04.54,2.56,1.13,5.18,1.78,7.87.65,2.69,1.29,5.41,1.94,8.15.54,2.74,1.1,5.27,1.7,7.6.59,2.33,1.1,4.45,1.54,6.37,1.29-5.38,2.5-10.68,3.63-15.88,1.13-5.2,2.23-9.9,3.31-14.1l4.69-18.35,19.71-2.05c-1.83,6.94-3.55,13.74-5.17,20.4-1.62,6.66-3.12,13.1-4.52,19.3-2.69,11.14-5.06,21.63-7.11,31.49-2.05,9.86-3.61,18.44-4.68,25.74,1.18,0,.99.12-.57.34-1.56.23-3.85.55-6.87.96-3.02.41-6.25.94-9.69,1.57-3.45.64-6.52,1.42-9.21,2.33-.32-3.65-.65-7.21-.97-10.68-.32-3.47-.7-6.85-1.13-10.13-.65-5.84-1.4-11.64-2.26-17.39-.86-5.75-1.72-10.31-2.58-13.69-.75,4.02-1.67,8.6-2.75,13.76-1.08,5.16-2.26,10.34-3.55,15.54l-4.52,19.17-23.58,4.65Z"/><path class="cls-1" d="M571.39,541.58c1.51-5.29,3.01-11.29,4.52-18,1.51-6.71,3.01-13.67,4.52-20.88,1.51-7.21,2.91-14.15,4.2-20.81,1.18-5.84,2.34-11.77,3.47-17.8,1.13-6.02,2.23-12.09,3.31-18.21l25.2-3.42-7.27,36.01c-1.62,8.49-3.04,16.11-4.28,22.86-1.24,6.75-2.42,13.14-3.55,19.17s-2.29,12.18-3.47,18.48c-2.05,0-4.52.12-7.43.34-2.91.23-5.82.5-8.72.82-2.91.32-5.36.62-7.35.89-1.99.27-3.04.46-3.15.55Z"/><path class="cls-1" d="M612.75,542.95c.75-6.39,1.45-12.73,2.1-19.03.65-6.3,1.24-12.5,1.78-18.62,1.18-11.13,2.12-22.09,2.83-32.86.7-10.77,1.16-20.85,1.37-30.26,8.4,0,16.8-.32,25.2-.96-.54,5.29-1.08,10.11-1.62,14.44-.54,4.34-1.02,8.19-1.45,11.57l-1.94,16.57c-.54,5.02-1,9.26-1.37,12.73-.38,3.47-.73,6.66-1.05,9.58-.32,2.92-.75,6.12-1.29,9.58h2.91l18.09-72.83,8.88-.41c1.4-.09,2.8-.16,4.2-.21,1.4-.04,2.85-.11,4.36-.21,1.51-.09,2.93-.18,4.28-.27,1.35-.09,2.61-.18,3.8-.27-2.05,5.39-4.12,11.41-6.22,18.07-2.1,6.66-4.2,13.55-6.3,20.67-2.1,7.12-4.23,14.15-6.38,21.08-1.72,5.84-3.45,11.8-5.17,17.87-1.72,6.07-3.45,12.21-5.17,18.41l-41.84,5.34Z"/><path class="cls-1" d="M665.73,541.85l21.16-97.34,51.05-3.7c-.75,2.01-1.4,4.06-1.94,6.16-.54,1.73-1.05,3.54-1.53,5.41-.49,1.87-.89,3.54-1.21,5-1.4.09-3.39.16-5.98.21-2.58.05-5.22.09-7.92.14-2.69.05-5.01.07-6.95.07h-3.07l-5.65,24.51,9.37-.41c1.18-.09,2.4-.14,3.63-.14h6.87c.97,0,1.72-.04,2.26-.14-.22,1.28-.4,2.53-.57,3.76-.16,1.23-.35,2.49-.57,3.77l-1.45,7.53c-.54.09-1.24.14-2.1.14h-3.07c-1.19.09-2.42.14-3.72.14s-2.53.05-3.72.14c-1.4.09-2.85.14-4.36.14s-3.12.05-4.85.14l-5.49,25.19,23.58-3.15-1.62,15.61-52.18,6.84Z"/><path class="cls-1" d="M720.17,541.85l8.4-35.59c1.29-6.57,2.69-13.32,4.2-20.26,1.51-6.94,2.93-13.78,4.28-20.54,1.35-6.75,2.4-13.1,3.15-19.03,6.14-1.64,12.76-2.85,19.87-3.63,7.11-.77,14.16-1.16,21.16-1.16,8.18,0,13.76,1.51,16.72,4.52,2.96,3.01,4.44,7.07,4.44,12.18,0,4.65-1.29,9.33-3.88,14.03-2.58,4.7-5.95,8.95-10.1,12.73-4.15,3.79-8.7,6.78-13.65,8.97,1.94,3.65,4.01,7.65,6.22,11.98,2.21,4.34,4.28,8.47,6.22,12.39,1.08,2.28,2.18,4.57,3.31,6.85,1.13,2.28,2.23,4.56,3.31,6.84l-25.04,7.39-5.82-16.43c-1.62-4.56-3.1-8.97-4.44-13.21-1.35-4.24-2.13-7.23-2.34-8.97l-2.1.55c-.32,1.46-.67,3.04-1.05,4.72-.38,1.69-.78,3.54-1.21,5.54-.43,2.01-.86,3.95-1.29,5.82-.43,1.87-.86,3.72-1.29,5.54l-2.91,13-26.17,5.75ZM758.13,482.44c1.94-.18,4.33-.89,7.19-2.12,2.85-1.23,5.71-2.76,8.56-4.59,2.85-1.82,5.25-3.7,7.19-5.61,1.94-1.92,2.91-3.6,2.91-5.07,0-1.82-1.27-3.03-3.8-3.63-2.53-.59-5.84-.89-9.93-.89h-3.55c-.65.09-1.24.14-1.78.14h-1.62l-5.17,21.77Z"/><path class="cls-1" d="M818.87,541.99c-4.31,0-8.62-.98-12.92-2.94-4.31-1.96-8.46-5.09-12.44-9.38l11.95-19.85c1.18,1.74,2.93,3.38,5.25,4.93,2.31,1.55,4.77,2.79,7.35,3.7,2.58.91,4.79,1.37,6.62,1.37,2.8,0,5.46-.73,8-2.19,2.53-1.46,3.8-3.42,3.8-5.89,0-3.19-1.72-6.11-5.17-8.76-3.45-2.65-7.33-5.25-11.63-7.8-4.2-2.55-8.05-5.45-11.55-8.69-3.5-3.24-5.25-6.96-5.25-11.16,0-4.74,1.62-9.15,4.85-13.21,3.23-4.06,7.43-7.62,12.6-10.68,5.17-3.06,10.69-5.43,16.56-7.12,5.87-1.69,11.44-2.53,16.72-2.53,3.77,0,7.27.53,10.5,1.57,3.23,1.05,5.82,2.76,7.75,5.13,1.94,2.37,2.91,5.57,2.91,9.58,0,.64-.03,1.28-.08,1.92-.06.64-.14,1.28-.24,1.92-.11.64-.24,1.3-.4,1.98-.16.68-.3,1.39-.4,2.12l-23.42,5.75c.21-.73.4-1.46.57-2.19.16-.73.24-1.46.24-2.19,0-2.74-.57-4.72-1.7-5.96-1.13-1.23-2.61-1.85-4.44-1.85-.97,0-2.37.43-4.2,1.3-1.83.87-3.47,2.05-4.93,3.56-1.45,1.51-2.18,3.17-2.18,5,0,3.01,1.48,5.5,4.44,7.46,2.96,1.96,6.38,3.95,10.26,5.96,1.83.91,3.88,2.35,6.14,4.31,2.26,1.96,4.23,4.61,5.9,7.94,1.67,3.33,2.5,7.6,2.5,12.8,0,6.75-1.97,12.69-5.9,17.8-3.93,5.11-9.24,9.1-15.91,11.98-6.68,2.88-14.05,4.31-22.13,4.31Z"/><path class="cls-1" d="M862,541.85l21.16-97.34,51.05-3.7c-.75,2.01-1.4,4.06-1.94,6.16-.54,1.73-1.05,3.54-1.53,5.41-.49,1.87-.89,3.54-1.21,5-1.4.09-3.39.16-5.98.21-2.58.05-5.22.09-7.92.14-2.69.05-5.01.07-6.95.07h-3.07l-5.65,24.51,9.37-.41c1.18-.09,2.4-.14,3.63-.14h6.87c.97,0,1.72-.04,2.26-.14-.22,1.28-.4,2.53-.57,3.76-.16,1.23-.35,2.49-.57,3.77l-1.45,7.53c-.54.09-1.24.14-2.1.14h-3.07c-1.19.09-2.42.14-3.72.14s-2.53.05-3.72.14c-1.4.09-2.85.14-4.36.14s-3.12.05-4.85.14l-5.49,25.19,23.58-3.15-1.62,15.61-52.18,6.84Z"/></g></svg>
