<?xml version="1.0" encoding="utf-8"?>
<!-- Generator: Adobe Illustrator 28.4.1, SVG Export Plug-In . SVG Version: 6.00 Build 0)  -->
<svg version="1.1" xmlns="http://www.w3.org/2000/svg" xmlns:xlink="http://www.w3.org/1999/xlink" x="0px" y="0px"
	 viewBox="0 0 1000 1000" style="enable-background:new 0 0 1000 1000;" xml:space="preserve">
<style type="text/css">
	.st0{display:none;}
	.st1{display:inline;}
	.st2{fill:url(#SVGID_1_);}
	.st3{fill:#FFFFFF;}
	.st4{fill:none;stroke:#0E0D0C;stroke-width:8;stroke-miterlimit:10;}
	.st5{fill:#D0DD27;stroke:#0E0D0C;stroke-width:8;stroke-miterlimit:10;}
	.st6{fill:#F5C71A;stroke:#0E0D0C;stroke-width:8;stroke-miterlimit:10;}
	.st7{fill:#FFC94A;stroke:#DFBC24;stroke-width:2;stroke-miterlimit:10;}
	.st8{fill:none;stroke:#F89A1C;stroke-miterlimit:10;}
	.st9{fill:#FFFFFF;stroke:#000000;stroke-width:16;stroke-miterlimit:10;}
	.st10{fill:#FEE28A;}
	.st11{fill:#A97029;}
	.st12{fill:#FCB32A;}
	.st13{stroke:#000000;stroke-width:14;stroke-miterlimit:10;}
	.st14{fill:#F5C717;}
	.st15{font-family:'Bangers-Regular';}
	.st16{font-size:136.9033px;}
</style>
<g id="Layer_5">
</g>
<g id="Layer_1" class="st0">
	<g id="Layer_2" class="st1">
	</g>
	<g id="Layer_3" class="st1">
		<radialGradient id="SVGID_1_" cx="502.8511" cy="494.5319" r="471.5696" gradientUnits="userSpaceOnUse">
			<stop  offset="0" style="stop-color:#674B9C"/>
			<stop  offset="0.6615" style="stop-color:#101028"/>
			<stop  offset="0.856" style="stop-color:#12182B"/>
			<stop  offset="1" style="stop-color:#19202C"/>
		</radialGradient>
		<path class="st2" d="M917.9,971.1H87.8c-28.4,0-51.4-23-51.4-51.4V69.3c0-28.4,23-51.4,51.4-51.4h830.2c28.4,0,51.4,23,51.4,51.4
			v850.4C969.3,948.1,946.3,971.1,917.9,971.1z"/>
		<g>
			<path class="st3" d="M668.1,76.4c-0.3,0.2-0.5,0.4-0.8,0.6c1.9,2.1,3.7,4.2,5.6,6.2c19,19.5,38.1,39,57.2,58.4
				c4.6,4.7,9,9.5,13.8,13.9c1,1,3.4,0.5,5.2,0.8c-0.2-1.7-0.1-3.5-0.6-5.1c-0.3-0.9-1.6-1.6-2.4-2.4
				c-14.7-13.7-29.5-27.4-44.2-41.1C690.7,97.3,679.4,86.8,668.1,76.4z M478.5,565.4c-0.2,0.2-0.4,0.4-0.7,0.7
				c13.4,13.1,26.8,26.2,40.3,39.2c0.7,0.7,2.2,0.6,3.4,0.8c-0.2-1.2-0.1-2.9-0.8-3.6c-5.4-5-11-9.8-16.5-14.7
				C495.7,580.4,487.1,572.9,478.5,565.4z M898.8,453.2c6.1,1,9.3,4.4,10.6,10c0.7-6.1,4.4-8.8,10.2-10c-6-1.2-9.5-4.2-10.3-10.2
				C908.1,448.9,905,452.3,898.8,453.2z M757.6,253.2c1.6,5.3-0.1,9.2-4.4,12.8c5.7-2.1,9.2,1,13.2,4c-2.1-5.4,0.4-8.8,4.3-12.3
				C765,259.2,761.2,257.1,757.6,253.2z M540.6,501.7c-3.7-4.3-3.2-8.4-0.7-13.1c-4.5,3.6-8.9,3.1-13.7,0.5
				c3.5,4.4,3.9,8.6,0.7,13.5C531.5,498.7,535.8,499.2,540.6,501.7z M432.5,751.3c3.1,0,6.7,0,9.3,0c0-3.2,0-6.7,0-9.1
				c-3.2,0-6.8,0-9.8,0C432.1,745.1,432.3,748.5,432.5,751.3z M91.7,659.4c0.2,2.9,0.4,6.5,0.6,9.2c3-0.2,6.3-0.4,8.9-0.5
				c0-3,0-6.3,0-8.6C97.9,659.4,94.4,659.4,91.7,659.4z M129.8,380.9c-1.8,1.7-4,4-5.8,5.7c1.9,1.8,4.1,4,5.8,5.6
				c2-1.8,4.3-3.9,6.1-5.5C134,384.9,131.8,382.8,129.8,380.9z M672.4,628c-1.8,2.6-3.8,4.2-3.7,5.6c0.1,1.5,2.3,2.8,3.6,4.1
				c1.5-1.4,3.8-2.6,4.1-4.2C676.7,632.2,674.4,630.5,672.4,628z M63.9,512.2c-2,2.6-4.2,4.2-4,5.6c0.1,1.5,2.5,2.8,3.9,4.1
				c1.4-1.3,3.8-2.5,4-4C67.8,516.5,65.7,514.8,63.9,512.2z M597.2,835.1c1.8-2.7,4-4.6,3.7-5.8c-0.4-1.6-2.8-2.8-4.3-4.1
				c-1.2,1.5-3.3,2.9-3.4,4.4C593.1,831,595.2,832.5,597.2,835.1z M816.4,81.5c-1.9,2.6-3.9,4.2-3.8,5.6c0.1,1.4,2.3,2.7,3.6,4.1
				c1.5-1.4,3.7-2.6,4.1-4.2C820.6,85.8,818.4,84.1,816.4,81.5z M124.6,875.3c-2.1,2.6-4.1,4.1-4.2,5.6c-0.1,1.2,2.2,3.7,3.3,3.6
				c1.5-0.1,3.9-1.9,4.2-3.2C128.2,880,126.4,878.2,124.6,875.3z M445.9,110.5c-2.9-1.7-4.7-3.7-6-3.4c-1.5,0.3-2.7,2.5-4,3.8
				c1.4,1.2,2.8,3.3,4.3,3.5C441.6,114.5,443.2,112.5,445.9,110.5z M553.3,701.5c-2.7-1.4-4.3-2.9-5.7-2.8c-1.2,0.1-2.2,2.2-3.3,3.4
				c1.4,1.1,2.6,2.8,4.1,3C549.5,705.2,550.9,703.3,553.3,701.5z M987.9,467.5c-2.5-1.5-3.9-3.1-5.2-3c-1.3,0.1-2.5,1.8-3.8,2.9
				c1.2,1.2,2.3,3.1,3.8,3.4C983.8,471,985.4,469.2,987.9,467.5z M821,780.8c-2.6-1.5-4.1-3.1-5.2-2.9c-1.3,0.2-2.3,2.1-3.5,3.2
				c1.2,1.1,2.4,2.9,3.7,3.1C817.2,784.3,818.6,782.6,821,780.8z M496,748.4c-1.8,2.2-3.7,3.5-3.6,4.6c0.1,1.2,2,2.4,3.1,3.5
				c1.2-1,3.1-2,3.4-3.2C499,752.3,497.5,750.8,496,748.4z M832.7,725.9c-1.7,2.3-3.5,3.6-3.4,4.8c0.1,1.2,2,2.3,3.1,3.5
				c1.2-1.1,3.1-2.1,3.3-3.3C835.9,729.7,834.2,728.2,832.7,725.9z M175.9,693.3c1.7-2.1,3.6-3.4,3.5-4.5c-0.1-1.2-2-3.2-3.2-3.2
				c-1.2,0-3.3,1.7-3.5,2.9C172.6,689.6,174.4,691.1,175.9,693.3z M994.2,250.3c-2.4-1.8-3.7-3.6-4.9-3.5c-1.3,0.1-2.9,1.8-3.4,3.1
				c-0.2,0.7,1.7,2.8,2.9,3C990.1,253,991.6,251.7,994.2,250.3z M320.6,207.2c-2.1-1.4-3.6-3.1-4.6-2.9c-1.3,0.3-2.9,2-3.1,3.3
				c-0.2,0.8,2,2.9,3,2.8C317.3,210.3,318.6,208.7,320.6,207.2z M829.6,621.4c-1.6,1.7-3.3,2.7-3.4,3.7c0,1.1,1.8,3.2,2.5,3.1
				c1.4-0.2,3.1-1.5,3.6-2.7C832.6,624.8,830.9,623.3,829.6,621.4z M634.2,901.2c1.6-1.9,3.2-3.1,3.3-4.4c0.1-1-2-3.1-2.8-2.9
				c-1.3,0.2-3.1,1.7-3.4,2.9C631,897.7,632.8,899.1,634.2,901.2z M793.8,307.5c-1.6,1.9-3.3,3.1-3.2,4.1c0.1,1.1,1.7,2.5,2.9,2.9
				c0.6,0.2,2.7-1.5,2.7-2.5C796.3,310.9,795,309.6,793.8,307.5z M167.8,810.2c-1.9-1.4-3.3-3.2-4.2-3c-1.3,0.3-2.3,2.1-3.4,3.2
				c1.1,1,2.2,2.7,3.4,2.7C164.6,813.2,165.9,811.6,167.8,810.2z M25.3,644.8c-2.1-1.3-3.4-2.8-4.5-2.6c-1.2,0.2-2.9,2-2.8,3
				c0.1,1.1,1.9,2.7,3.1,2.8C22.2,648,23.4,646.3,25.3,644.8z M947.3,899.7c-1.8-1.5-3.1-3.4-4-3.2c-1.4,0.3-2.4,1.9-3.6,2.9
				c1,1,2,2.7,3.2,2.9C943.9,902.4,945.2,901,947.3,899.7z M512.5,659.8c-1.3,2-2.9,3.3-2.7,4.3c0.2,1.1,2,2.6,3.1,2.6
				c1,0,2.7-1.8,2.8-2.9C515.7,662.7,514,661.6,512.5,659.8z M339.2,612.4c-1.8-1.2-3-2.7-3.9-2.5c-1.2,0.3-2.1,1.8-3.2,2.9
				c1.1,0.9,2.2,2.4,3.4,2.7C336.4,615.5,337.5,613.8,339.2,612.4z M526.5,868.8c-2.1-1.3-3.5-2.8-4.5-2.7c-1.1,0.2-2.4,1.8-2.7,3.1
				c-0.1,0.6,1.8,2.4,2.8,2.4C523.2,871.6,524.4,870.2,526.5,868.8z M487.4,356.2c-1.4,1.8-3,3-2.8,3.8c0.4,1.2,1.8,2.6,3,2.9
				c0.7,0.2,2.7-1.7,2.7-2.6C490.3,359.1,488.8,358,487.4,356.2z M197.8,900.9c1.5-1.9,3-3,3-4.2c0-1-1.8-2.9-2.5-2.8
				c-1.2,0.2-3,1.5-3.2,2.6C194.9,897.5,196.4,898.9,197.8,900.9z M864.9,649.8c-1.9-1.4-3-2.8-4-2.8c-1,0.1-2.7,1.6-2.7,2.5
				c0,0.9,1.5,2.5,2.6,2.7C861.7,652.3,862.9,651,864.9,649.8z M180.5,582.8c-2.2-1.3-3.7-2.7-4.7-2.5c-1.1,0.2-2.4,2-2.5,3.2
				c-0.1,0.7,1.9,2.4,2.9,2.3C177.4,585.8,178.5,584.3,180.5,582.8z M541.4,565.9c-2.1-1.4-3.3-2.9-4.4-2.8
				c-1.1,0.1-2.5,1.7-2.8,2.9c-0.2,0.7,1.6,2.5,2.6,2.5C538,568.5,539.2,567.2,541.4,565.9z M451.8,557.5c-2.2-1.2-3.4-2.5-4.7-2.5
				c-0.9,0-2.8,2-2.6,2.5c0.4,1.2,1.8,2.7,2.9,2.8C448.6,560.5,449.9,558.9,451.8,557.5z M771.1,777.8c-2.2-1.2-3.5-2.5-4.7-2.4
				c-0.9,0-2.7,2-2.5,2.7c0.3,1.2,1.8,2.8,2.9,2.9C767.9,781,769.1,779.4,771.1,777.8z M123.2,757.7c-2-1.3-3.2-2.7-4.4-2.8
				c-0.9,0-2.8,1.9-2.6,2.5c0.4,1.2,1.7,2.6,2.9,2.9C120,760.5,121.3,759,123.2,757.7z M353.4,419c-1.4,1.7-3.1,2.8-2.9,3.6
				c0.3,1.2,1.8,2.1,2.8,3.1c0.9-0.9,2.4-1.8,2.5-2.8C355.9,421.9,354.6,420.7,353.4,419z M563.2,440.4c-1.3,1.9-2.7,3.1-2.7,4.2
				c0,0.9,2.1,2.6,2.8,2.4c1.2-0.3,2.5-1.8,2.7-3C566.2,443.2,564.6,442.1,563.2,440.4z M60.2,838.5c-2.1-1.3-3.5-2.9-4.5-2.7
				c-1.1,0.2-2.4,1.9-2.6,3.1c-0.1,0.7,1.8,2.4,2.8,2.4C57.1,841.3,58.2,839.9,60.2,838.5z M679.9,587.3c-2-1.3-3.1-2.6-4.2-2.5
				c-1,0.1-2.7,1.5-2.8,2.3c-0.1,1,1.5,2.8,2.3,2.8C676.5,589.9,677.7,588.6,679.9,587.3z M523,447.6c-1.7-1.4-2.9-3.1-3.7-3
				c-1.2,0.3-2.2,1.7-3.2,2.7c0.9,0.9,1.8,2.4,2.9,2.6C520,450,521.2,448.7,523,447.6z M380.9,816.1c-1.8-1.3-2.9-2.7-3.9-2.6
				c-1.1,0-2.1,1.5-3.1,2.3c1,1,1.8,2.6,3,2.9C377.7,818.9,379,817.3,380.9,816.1z M548.5,305c-1.7-1.4-2.7-2.8-3.7-2.8
				c-1,0-2.1,1.4-3.1,2.2c0.9,1.1,1.6,2.7,2.8,3.1C545.3,307.7,546.6,306.2,548.5,305z M240.3,460.2c-2-1.1-3.2-2.4-4.1-2.2
				c-1,0.2-1.8,1.6-2.7,2.5c1,0.9,1.9,2.3,2.9,2.4C237.3,462.9,238.4,461.5,240.3,460.2z M183.3,390.1c-2-1.2-3.4-2.5-4.3-2.3
				c-1,0.3-2.1,1.8-2.4,3c-0.1,0.6,1.8,2.1,2.7,2.1C180.4,392.8,181.4,391.5,183.3,390.1z M660.2,379c1.9,1.1,3.1,2.3,4.2,2.3
				c0.8,0,2.3-1.7,2.2-2.4c-0.2-1.1-1.6-2.6-2.5-2.7C663.1,376.2,662,377.7,660.2,379z M572.1,624.5c-1.3,1.9-2.8,3-2.6,4
				c0.1,1,1.8,2.4,2.7,2.5c0.9,0,2.4-1.6,2.5-2.6C574.8,627.4,573.4,626.3,572.1,624.5z M867.7,271.1c-1.7-1.5-2.9-3.2-3.6-3
				c-1.2,0.3-2.2,1.7-3.3,2.7c0.9,0.9,1.8,2.4,2.9,2.6C864.6,273.5,865.9,272.2,867.7,271.1z M283,766.9c-1.4,1.8-2.8,2.9-2.7,3.8
				c0.1,1,1.6,1.9,2.5,2.9c1-0.9,2.6-1.7,2.8-2.8C285.7,769.9,284.3,768.8,283,766.9z M867.9,459c-1.9-1.3-3.1-2.7-4.1-2.5
				c-1.1,0.2-1.9,1.7-2.8,2.7c1,0.9,1.9,2.3,2.9,2.4C864.8,461.6,866,460.3,867.9,459z M818.7,531.9c-1.2,1.9-2.4,2.9-2.4,4
				c0,0.8,1.5,1.6,2.4,2.4c0.9-0.9,2.3-1.8,2.5-2.8C821.4,534.7,820,533.6,818.7,531.9z M861.1,854.4c1.2-1.7,2.7-3,2.5-3.8
				c-0.4-1.2-2-2-3-3c-0.9,1.1-2.3,2.2-2.5,3.4C857.9,851.7,859.6,852.8,861.1,854.4z M739.9,515.8c-2-1.2-3.2-2.6-4.1-2.4
				c-1.1,0.2-1.9,1.7-2.8,2.7c1,0.8,1.9,2.2,3,2.3C737,518.4,738.1,517.1,739.9,515.8z M36.7,322.2c-1.2,1.9-2.4,2.9-2.4,3.9
				c0,0.8,1.6,2.5,2.2,2.4c1.2-0.3,2.8-1.4,2.9-2.3C39.5,325.3,38.1,324.1,36.7,322.2z M390.4,514.2c1.2-1.8,2.4-2.8,2.4-3.9
				c0-0.8-1.6-2.4-2.3-2.3c-1.1,0.2-2.7,1.4-2.8,2.3C387.6,511.3,389.1,512.4,390.4,514.2z M491.9,99c-1,1.9-2.1,3.1-2.1,4.2
				c0,0.8,1.6,1.5,2.5,2.2c0.8-1,2.2-1.9,2.3-3C494.8,101.6,493.3,100.6,491.9,99z M136.8,527.7c-1.3,2.1-2.5,3.1-2.5,4.2
				c0,0.9,1.4,1.8,2.2,2.7c1-0.8,2.6-1.6,2.8-2.6C139.4,531,138.1,529.8,136.8,527.7z M16.4,589.3c-1.4,1.6-2.7,2.5-2.8,3.5
				c-0.1,0.7,1.6,2.4,2.2,2.3c1.1-0.2,2.5-1.3,2.9-2.4C18.9,592.2,17.6,591,16.4,589.3z M550.5,79.3c1-1.9,2.2-3,2-3.8
				c-0.2-0.9-1.7-1.5-2.6-2.3c-0.8,0.9-2.1,1.8-2.1,2.7C547.7,76.7,549.1,77.6,550.5,79.3z"/>
			<path class="st3" d="M161.2,188.2c19.7,20.7,39.3,41.4,59,62.1c25.7,27.1,51.4,54.3,77.2,81.5c1.5,1.5,3.7,2.8,4.2,4.7
				c0.9,3.2,0.8,6.8,1.1,10.2c-3.1-0.4-7.3,0.4-9.1-1.5c-8.4-8.8-16.1-18.3-24.1-27.6c-33.3-38.6-66.6-77.3-99.8-115.9
				c-3.4-3.9-6.5-8.1-9.8-12.2C160.3,189.1,160.8,188.7,161.2,188.2z"/>
			<path class="st3" d="M757.6,229.7c3.6,4,7.4,6.2,13,4.7c-3.8,3.6-6.3,7.2-4.3,12.7c-4-3.1-7.5-6.3-13.2-4.1
				C757.5,239.2,759.3,235.2,757.6,229.7z"/>
			<path class="st3" d="M816.4,51.7c1.9,2.7,4.2,4.5,3.9,5.7c-0.4,1.7-2.6,2.9-4.1,4.3c-1.3-1.4-3.5-2.7-3.6-4.2
				C812.5,56,814.5,54.4,816.4,51.7z"/>
			<path class="st3" d="M445.9,81.8c-2.7,2-4.3,4.1-5.7,4c-1.5-0.1-2.9-2.3-4.3-3.6c1.3-1.4,2.5-3.7,4-4
				C441.2,78,443,79.9,445.9,81.8z"/>
			<path class="st3" d="M994.2,226.6c-2.6,1.4-4.1,2.8-5.4,2.6c-1.1-0.2-3.1-2.3-2.9-3.1c0.4-1.4,2.1-3.1,3.4-3.2
				C990.5,222.9,991.8,224.8,994.2,226.6z"/>
			<path class="st3" d="M548.5,283.3c-1.9,1.3-3.3,2.8-4.1,2.5c-1.1-0.4-1.9-2-2.8-3.2c1-0.8,2.1-2.3,3.1-2.3
				C545.8,280.4,546.8,281.9,548.5,283.3z"/>
			<path class="st3" d="M867.7,248.2c-1.9,1.2-3.1,2.5-4.1,2.4c-1.1-0.2-1.9-1.7-2.9-2.7c1.1-1,2.1-2.5,3.3-2.8
				C864.9,244.9,866,246.6,867.7,248.2z"/>
			<path class="st3" d="M491.9,69.8c1.4,1.7,2.9,2.7,2.8,3.5c-0.2,1.1-1.5,2.1-2.3,3.1c-0.9-0.8-2.5-1.5-2.5-2.3
				C489.7,73,490.8,71.8,491.9,69.8z"/>
			<path class="st3" d="M550.5,49.4c-1.4-1.7-2.7-2.6-2.7-3.5c0-1,1.3-1.9,2.1-2.8c0.9,0.8,2.4,1.4,2.6,2.4
				C552.6,46.3,551.5,47.4,550.5,49.4z"/>
		</g>
	</g>
</g>
<g id="Layer_4">
	<path class="st4" d="M439,329"/>
	<path class="st4" d="M348.3,324"/>
	<path class="st4" d="M177.2,357.8"/>
	<path class="st5" d="M877.2,423.8"/>
	<path class="st6" d="M828.7,455.7"/>
	<path class="st7" d="M1088.9,618.2"/>
	<path class="st8" d="M347.2,369.8"/>
	<path class="st9" d="M571.9,621.5c-11.1,4-21.1,6.5-21.8,6.7c-10.7,2.6-20,4-27.1,4.8c-1.8,7.2-4.4,15.3-8.4,23.9
		c-9.3,20.1-21.8,34.1-31.1,42.7c1.4-5.7,2.9-14.7,1.7-25.6c-1.5-13-6.1-22.8-9.2-28.2c-14.2,0.7-34.1,1-57.8-0.6
		c-36.3-2.5-65.5-4.5-93.4-16.5c-9.5-4.1-75.1-33.5-85.7-89.7c-2.7-14.2-1.9-27.3-1.7-28.8c0.9-9.6,4-26.9,21.3-52.4
		c18.5-27.4,39.1-44.6,52.9-55.2c8.9-6.9,16.7-12,22.5-15.6c0,0,0,0,0,0c0.7-0.4,50.4-27.7,71.7-37.6c18.1-8.4,32.2-11.7,51.9-16.3
		c30.8-7.2,114.9-27,197.1,11.2c24.3,11.3,47.9,22.6,61.6,48.6c10.5,19.8,16.2,49.8,11.1,78.3c0,0,0,0.1,0,0.2
		c-12.2,67.8-74.5,109-88.9,118.5C638.4,589.8,612.5,607,571.9,621.5z"/>
	<path class="st10" d="M727.9,499.6c39.7,24.9,45.5,38.2,43.5,45.7c-7.9,29.8-153.7,28.9-279.9-13.3
		c-111.3-37.2-226.3-112.1-215.7-145.5c5.6-17.4,44.4-20.8,78.8-20.7c11.7-6.8,24.9-13.7,39.7-20.1c28.4-12.3,54.8-19.5,77.1-23.8
		c-30.5-9.4-77.8-20.8-136.3-21.4c-40-0.5-172.8-1.9-191,45.7c-22.8,59.7,139,207.6,327.1,266.1c177.6,55.3,395.1,34.1,412.8-33.3
		c7.2-27.3-15.3-73.8-149.7-157.9c2.1,9.9,4,24.3,2.4,41.4C735.2,478,731.4,490.7,727.9,499.6z"/>
	<path class="st11" d="M377.5,353.7c-53.2-1-120,2.6-128.6,30.1c-12.3,39.2,97.6,113.6,192.7,151.8c154.3,62,339.8,57.4,352.1,13.2
		c3.2-11.5-3.6-32.1-59.6-70.6c-2.1,7.2-4.1,14.3-6.2,21.5c40.1,25.1,45.4,38.3,43.5,45.7c-8.5,31.7-173.6,30.5-316.5-26.7
		c-87.7-35.1-189.2-100.6-179.1-132c5.5-17.1,43.1-20.8,78.8-20.7C362.2,361.8,369.9,357.7,377.5,353.7z"/>
	<path class="st12" d="M409.3,340.3c-106.9-15.5-191.5-3-201.2,29c-11,36.4,70.9,109.1,116.8,140.4c3,2.1,5.3,3.6,6.6,4.4
		c47.6,31.9,89.4,46.6,126.1,59.6c86.2,30.4,153,35.6,190.6,38.1c33.1,2.2,56.1,1.5,81-3.2c26.2-4.9,92.1-17.3,99.9-53
		c4.8-22-14-44-30.3-63c-21.8-25.4-46.5-38.7-61.5-45.3c0.1,5.3-0.2,11.3-1,17.9c-0.6,4.6-1.4,8.8-2.3,12.7
		c54.8,37.6,63,58.4,59.6,70.6c-11.8,42.4-182.2,46.6-325-3.4c-112.8-39.5-232.5-120.8-219.8-161.6c5-16.1,32.3-31.5,128.6-30.1
		C388.1,349.2,398.7,344.8,409.3,340.3z"/>
	<g>
		<g>
			<path class="st13" d="M95.4,554.9c-6.8,0-12.3-2.7-16.6-8.1c-4.3-5.4-6.5-12.8-6.5-22.2c0-8.6,1.4-17,4.2-25.4
				c2.8-8.4,6.7-15.9,11.8-22.5c5.1-6.7,11.1-12,18-16.1c6.9-4.1,14.6-6.1,23-6.1c5.3,0,9.8,1.7,13.6,5.2c3.8,3.5,5.7,8.1,5.7,14
				v1.6c0,0.4,0,0.7,0,1c0,0.3-0.1,0.6-0.2,1l-21.2,4.8c-1.3-2.3-2.8-3.4-4.5-3.4c-2.6,0-5.3,1.8-8.2,5.3c-2.9,3.6-5.6,7.8-8.2,12.7
				c-1.7,3.3-3.3,6.7-4.6,10.1c-1.3,3.5-2.4,6.7-3.2,9.7c-0.8,3-1.1,5.5-1.1,7.4c0,2.8,0.5,4.9,1.5,6.2c0.8,1.2,1.9,1.8,3.6,1.8
				c1.6,0,3.4-0.7,5.3-2c1.9-1.3,3.7-3,5.4-5c1.7-2,2.8-4,3.3-6l18.4,6.3c-5.3,10.2-11.6,17.7-18.8,22.5
				C108.8,552.5,101.9,554.9,95.4,554.9z"/>
			<path class="st13" d="M162.1,555.2c-7.1,0-12.9-2.3-17.4-7c-4.5-4.7-6.8-11.7-6.8-21.1c0-5.2,0.8-10.7,2.3-16.4
				c1.5-5.8,3.6-11.4,6.3-17c2.7-5.6,5.8-10.7,9.4-15.5c5.7-7.7,12.3-13.9,19.7-18.8c7.4-4.8,15.2-7.3,23.4-7.3
				c6.5,0,11.4,1.4,14.9,4.2c3.5,2.8,5.9,6.3,7.4,10.7c1.4,4.3,2.1,8.8,2.1,13.5c0,10.9-2,21-5.9,30.3c-3.9,9.4-9,17.3-15.3,23.8
				c-6.2,6.7-12.9,11.8-20,15.3C175.1,553.4,168.4,555.2,162.1,555.2z M170.8,532.6c4.8,0,9.1-1.4,12.8-4.1
				c3.7-2.7,6.9-6.2,9.5-10.5c2.6-4.2,4.5-8.7,5.8-13.3c1.3-4.7,1.9-8.9,1.9-12.6c0-1.5-0.2-3-0.5-4.7c-0.3-1.7-1-3.2-2.1-4.4
				c-1.1-1.3-2.7-1.9-5-1.9c-5,0-9.4,1.5-13.4,4.6c-4,3.1-7.3,6.9-10,11.6c-2.7,4.7-4.7,9.4-6,14c-1.3,4.6-1.9,8.7-1.9,12.5
				c0,1.9,0.8,3.9,2.4,6C165.9,531.6,168.1,532.6,170.8,532.6z"/>
			<path class="st13" d="M207.6,553.8c4.7-12.2,9.3-24.1,13.6-35.7c1.8-4.7,3.7-9.8,5.7-15.2c1.9-5.4,3.9-10.8,5.8-16.2
				c1.9-5.4,3.8-10.7,5.5-15.7c1.7-5,3.2-9.5,4.4-13.4c5.9,0,11.5-0.3,16.8-0.8c2.7-0.3,5.5-0.5,8.3-0.8c2.9-0.3,5.8-0.5,8.8-0.7
				l-1,6.7c-0.2,1.3-0.4,2.6-0.6,3.9c-0.2,1.3-0.4,2.7-0.6,4c-0.2,1.4-0.5,2.8-0.8,4.2c-0.3,1.4-0.6,2.9-0.8,4.3
				c-0.4,2.8-1.1,6.8-1.9,11.8c-0.9,5.1-1.9,10.6-3.1,16.5h2.1c3.1-6.9,5.7-12.7,7.8-17.3c2-4.6,3.7-8.4,5-11.3
				c1.8-4.3,3.8-8.6,6-13c2.2-4.4,3.9-7.8,5.3-10.1c2.6-0.2,5.7-0.5,9.3-0.9c3.6-0.4,7.3-0.9,11-1.4c3.7-0.5,6.9-1,9.6-1.4
				c-1.5,7.7-2.9,15.4-4.1,23.2c-1.2,7.8-2.3,15.2-3.2,22.3c-0.9,7.1-1.7,13.4-2.3,19.1c-0.6,5.7-1.2,11.2-1.8,16.8
				c-0.5,5.5-1.1,11-1.6,16.4l-28.1,4.2c0-0.2,0.2-2.2,0.5-6.2c0.3-3.9,0.9-8.8,1.6-14.6c0.8-5.8,1.5-11.4,2.3-16.6
				c0.8-5.2,1.5-9.6,2.3-12.9h-1.5c-2.7,6.9-6,14.5-9.8,22.7c-3.8,8.2-7.6,17.3-11.2,27.2c-3.8,0.1-7,0.2-9.7,0.3
				c-2.7,0.1-5.8,0.3-9.4,0.5l5.2-50.8h-2.4c-0.1,1-0.6,2.9-1.5,5.8c-0.9,2.9-1.9,6.2-3.1,9.9c-1.2,3.7-2.4,7.4-3.7,11
				c-4.8,14.3-7.4,21.9-7.8,22.7L207.6,553.8z"/>
			<path class="st13" d="M313.3,554.5c1.5-5.3,3-11.3,4.5-18c1.5-6.7,3-13.7,4.5-20.9c1.5-7.2,2.9-14.1,4.2-20.8
				c1.2-5.8,2.3-11.8,3.5-17.8c1.1-6,2.2-12.1,3.3-18.2l25.2-3.4l-7.3,36c-1.6,8.5-3,16.1-4.3,22.9c-1.2,6.8-2.4,13.1-3.6,19.2
				s-2.3,12.2-3.5,18.5c-2,0-4.5,0.1-7.4,0.3c-2.9,0.2-5.8,0.5-8.7,0.8c-2.9,0.3-5.4,0.6-7.4,0.9
				C314.4,554.2,313.4,554.4,313.3,554.5z"/>
			<path class="st13" d="M374.5,554.9c-6.8,0-12.3-2.7-16.6-8.1c-4.3-5.4-6.5-12.8-6.5-22.2c0-8.6,1.4-17,4.2-25.4
				c2.8-8.4,6.7-15.9,11.8-22.5c5.1-6.7,11.1-12,18-16.1c6.9-4.1,14.6-6.1,23-6.1c5.3,0,9.8,1.7,13.6,5.2c3.8,3.5,5.7,8.1,5.7,14
				v1.6c0,0.4,0,0.7,0,1c0,0.3-0.1,0.6-0.2,1l-21.2,4.8c-1.3-2.3-2.8-3.4-4.5-3.4c-2.6,0-5.3,1.8-8.2,5.3c-2.9,3.6-5.6,7.8-8.2,12.7
				c-1.7,3.3-3.3,6.7-4.6,10.1c-1.3,3.5-2.4,6.7-3.2,9.7c-0.8,3-1.1,5.5-1.1,7.4c0,2.8,0.5,4.9,1.5,6.2c0.8,1.2,1.9,1.8,3.6,1.8
				c1.6,0,3.4-0.7,5.3-2c1.9-1.3,3.7-3,5.4-5c1.7-2,2.8-4,3.3-6l18.4,6.3c-5.3,10.2-11.6,17.7-18.8,22.5
				C388,552.5,381.1,554.9,374.5,554.9z"/>
			<path class="st13" d="M470.1,557.1c-3.2,0-6.5-0.6-9.9-1.8c-3.3-1.2-6.1-3-8.4-5.5c-2.3-2.5-3.4-5.6-3.4-9.4v-1.1
				c0-0.5,0.1-0.8,0.2-1.1c0.3-2.4,0.8-5.5,1.4-9.3c0.6-3.8,1.3-8,2.2-12.5c0.9-4.5,1.7-9,2.7-13.5c0.9-4.5,1.7-8.5,2.5-12.2
				c1.6-7.3,2.9-13.2,3.9-17.7c1-4.5,1.7-7.9,2.3-10.3c0.6-2.4,1.1-4.2,1.4-5.4l26.7-2.2c-1.4,5.6-2.7,10.8-4,15.8
				c-1.2,5-2.4,9.7-3.5,14.2l-7.4,30.3c-0.6,2.3-1.1,4.2-1.5,5.8c-0.4,1.5-0.9,3.3-1.4,5.5c-0.5,2.2-0.7,4.3-0.7,6.1
				c0,1.5,0.4,2.7,1.3,3.6c0.9,1,1.9,1.4,3.2,1.4c1.8,0,3.3-0.6,4.5-1.8c1.2-1.2,2.2-2.6,2.9-4.4c0.8-1.7,1.3-3.5,1.8-5.3
				c0.4-1.8,0.8-3.2,1.1-4.3c1.1-4.2,2.1-8.3,3-12.3c0.9-4,1.9-8.2,2.9-12.7c1-4.5,2.2-9.6,3.5-15.5c0.9-4,1.7-8.1,2.7-12.3
				c0.9-4.2,1.8-8.4,2.7-12.7l24.6-1.4l-5.7,26.4c-0.8,3.4-1.6,7.2-2.5,11.4c-0.9,4.2-1.9,8.4-3,12.7c-1.1,4.3-2.1,8.4-3,12.2
				c-0.9,3.8-1.8,7.1-2.5,9.9c-2.2,7.5-5.5,13.3-10,17.6c-4.5,4.2-9.5,7.2-14.9,9C480.3,556.2,475.1,557.1,470.1,557.1z"/>
			<path class="st13" d="M512,555.3c3.2-13.1,6.3-25.9,9.2-38.2c2.4-11.6,4.7-22.7,6.9-33.4c2.3-10.7,3.9-20.5,4.8-29.4
				c0.8,0.1,1.4,0.1,2,0.1c0.6,0,1.1,0,1.5,0h3.4c2.8,0,5.9-0.1,9.4-0.2c3.4-0.1,6.6-0.3,9.5-0.3c0.8,3.2,1.5,6.3,2.2,9.4
				c0.7,3.1,1.3,6.1,1.9,9c0.5,2.6,1.1,5.2,1.8,7.9c0.6,2.7,1.3,5.4,1.9,8.1c0.5,2.7,1.1,5.3,1.7,7.6c0.6,2.3,1.1,4.4,1.5,6.4
				c1.3-5.4,2.5-10.7,3.6-15.9c1.1-5.2,2.2-9.9,3.3-14.1l4.7-18.3l19.7-2.1c-1.8,6.9-3.6,13.7-5.2,20.4c-1.6,6.7-3.1,13.1-4.5,19.3
				c-2.7,11.1-5.1,21.6-7.1,31.5c-2,9.9-3.6,18.4-4.7,25.7c1.2,0,1,0.1-0.6,0.3c-1.6,0.2-3.9,0.5-6.9,1c-3,0.4-6.2,0.9-9.7,1.6
				c-3.4,0.6-6.5,1.4-9.2,2.3c-0.3-3.6-0.6-7.2-1-10.7c-0.3-3.5-0.7-6.8-1.1-10.1c-0.6-5.8-1.4-11.6-2.3-17.4
				c-0.9-5.8-1.7-10.3-2.6-13.7c-0.8,4-1.7,8.6-2.7,13.8c-1.1,5.2-2.3,10.3-3.6,15.5l-4.5,19.2L512,555.3z"/>
			<path class="st13" d="M585,554.5c1.5-5.3,3-11.3,4.5-18c1.5-6.7,3-13.7,4.5-20.9c1.5-7.2,2.9-14.1,4.2-20.8
				c1.2-5.8,2.3-11.8,3.5-17.8c1.1-6,2.2-12.1,3.3-18.2l25.2-3.4l-7.3,36c-1.6,8.5-3,16.1-4.3,22.9c-1.2,6.8-2.4,13.1-3.6,19.2
				c-1.1,6-2.3,12.2-3.5,18.5c-2,0-4.5,0.1-7.4,0.3c-2.9,0.2-5.8,0.5-8.7,0.8c-2.9,0.3-5.4,0.6-7.3,0.9
				C586.1,554.2,585.1,554.4,585,554.5z"/>
			<path class="st13" d="M626.3,555.9c0.8-6.4,1.5-12.7,2.1-19s1.2-12.5,1.8-18.6c1.2-11.1,2.1-22.1,2.8-32.9
				c0.7-10.8,1.2-20.9,1.4-30.3c8.4,0,16.8-0.3,25.2-1c-0.5,5.3-1.1,10.1-1.6,14.4c-0.5,4.3-1,8.2-1.5,11.6l-1.9,16.6
				c-0.5,5-1,9.3-1.4,12.7c-0.4,3.5-0.7,6.7-1.1,9.6c-0.3,2.9-0.8,6.1-1.3,9.6h2.9l18.1-72.8l8.9-0.4c1.4-0.1,2.8-0.2,4.2-0.2
				c1.4,0,2.9-0.1,4.4-0.2c1.5-0.1,2.9-0.2,4.3-0.3c1.3-0.1,2.6-0.2,3.8-0.3c-2,5.4-4.1,11.4-6.2,18.1c-2.1,6.7-4.2,13.6-6.3,20.7
				c-2.1,7.1-4.2,14.1-6.4,21.1c-1.7,5.8-3.4,11.8-5.2,17.9c-1.7,6.1-3.4,12.2-5.2,18.4L626.3,555.9z"/>
			<path class="st13" d="M679.3,554.8l21.2-97.3l51-3.7c-0.8,2-1.4,4.1-1.9,6.2c-0.5,1.7-1.1,3.5-1.5,5.4c-0.5,1.9-0.9,3.5-1.2,5
				c-1.4,0.1-3.4,0.2-6,0.2c-2.6,0-5.2,0.1-7.9,0.1c-2.7,0-5,0.1-6.9,0.1s-3,0-3.1,0l-5.7,24.5l9.4-0.4c1.2-0.1,2.4-0.1,3.6-0.1
				c1.2,0,2.4,0,3.6,0c1.2,0,2.3,0,3.2,0c1,0,1.7,0,2.3-0.1c-0.2,1.3-0.4,2.5-0.6,3.8c-0.2,1.2-0.4,2.5-0.6,3.8l-1.5,7.5
				c-0.5,0.1-1.2,0.1-2.1,0.1c-0.9,0-1.9,0-3.1,0c-1.2,0.1-2.4,0.1-3.7,0.1c-1.3,0-2.5,0-3.7,0.1c-1.4,0.1-2.9,0.1-4.4,0.1
				c-1.5,0-3.1,0-4.8,0.1l-5.5,25.2l23.6-3.1l-1.6,15.6L679.3,554.8z"/>
			<path class="st13" d="M733.8,554.8l8.4-35.6c1.3-6.6,2.7-13.3,4.2-20.3c1.5-6.9,2.9-13.8,4.3-20.5c1.3-6.8,2.4-13.1,3.2-19
				c6.1-1.6,12.8-2.9,19.9-3.6c7.1-0.8,14.2-1.2,21.2-1.2c8.2,0,13.8,1.5,16.7,4.5c3,3,4.4,7.1,4.4,12.2c0,4.7-1.3,9.3-3.9,14
				c-2.6,4.7-6,8.9-10.1,12.7c-4.1,3.8-8.7,6.8-13.7,9c1.9,3.7,4,7.6,6.2,12c2.2,4.3,4.3,8.5,6.2,12.4c1.1,2.3,2.2,4.6,3.3,6.8
				c1.1,2.3,2.2,4.6,3.3,6.8l-25,7.4l-5.8-16.4c-1.6-4.6-3.1-9-4.4-13.2c-1.3-4.2-2.1-7.2-2.3-9l-2.1,0.5c-0.3,1.5-0.7,3-1.1,4.7
				c-0.4,1.7-0.8,3.5-1.2,5.5c-0.4,2-0.9,3.9-1.3,5.8c-0.4,1.9-0.9,3.7-1.3,5.5l-2.9,13L733.8,554.8z M771.7,495.4
				c1.9-0.2,4.3-0.9,7.2-2.1c2.9-1.2,5.7-2.8,8.6-4.6c2.9-1.8,5.3-3.7,7.2-5.6c1.9-1.9,2.9-3.6,2.9-5.1c0-1.8-1.3-3-3.8-3.6
				c-2.5-0.6-5.8-0.9-9.9-0.9h-3.6c-0.6,0.1-1.2,0.1-1.8,0.1c-0.5,0-1.1,0-1.6,0L771.7,495.4z"/>
			<path class="st13" d="M832.5,554.9c-4.3,0-8.6-1-12.9-2.9c-4.3-2-8.5-5.1-12.4-9.4l12-19.9c1.2,1.7,2.9,3.4,5.2,4.9
				c2.3,1.6,4.8,2.8,7.4,3.7c2.6,0.9,4.8,1.4,6.6,1.4c2.8,0,5.5-0.7,8-2.2c2.5-1.5,3.8-3.4,3.8-5.9c0-3.2-1.7-6.1-5.2-8.8
				c-3.4-2.6-7.3-5.2-11.6-7.8c-4.2-2.6-8.1-5.5-11.6-8.7c-3.5-3.2-5.3-7-5.3-11.2c0-4.7,1.6-9.1,4.8-13.2
				c3.2-4.1,7.4-7.6,12.6-10.7c5.2-3.1,10.7-5.4,16.6-7.1c5.9-1.7,11.4-2.5,16.7-2.5c3.8,0,7.3,0.5,10.5,1.6
				c3.2,1.1,5.8,2.8,7.8,5.1c1.9,2.4,2.9,5.6,2.9,9.6c0,0.6,0,1.3-0.1,1.9c-0.1,0.6-0.1,1.3-0.2,1.9c-0.1,0.6-0.2,1.3-0.4,2
				c-0.2,0.7-0.3,1.4-0.4,2.1l-23.4,5.8c0.2-0.7,0.4-1.5,0.6-2.2c0.2-0.7,0.2-1.5,0.2-2.2c0-2.7-0.6-4.7-1.7-6
				c-1.1-1.2-2.6-1.8-4.4-1.8c-1,0-2.4,0.4-4.2,1.3c-1.8,0.9-3.5,2.1-4.9,3.6c-1.5,1.5-2.2,3.2-2.2,5c0,3,1.5,5.5,4.4,7.5
				c3,2,6.4,3.9,10.3,6c1.8,0.9,3.9,2.4,6.1,4.3c2.3,2,4.2,4.6,5.9,7.9c1.7,3.3,2.5,7.6,2.5,12.8c0,6.8-2,12.7-5.9,17.8
				c-3.9,5.1-9.2,9.1-15.9,12C847.9,553.5,840.5,554.9,832.5,554.9z"/>
			<path class="st13" d="M875.6,554.8l21.2-97.3l51-3.7c-0.8,2-1.4,4.1-1.9,6.2c-0.5,1.7-1.1,3.5-1.5,5.4c-0.5,1.9-0.9,3.5-1.2,5
				c-1.4,0.1-3.4,0.2-6,0.2c-2.6,0-5.2,0.1-7.9,0.1c-2.7,0-5,0.1-6.9,0.1c-1.9,0-3,0-3.1,0l-5.7,24.5l9.4-0.4
				c1.2-0.1,2.4-0.1,3.6-0.1c1.2,0,2.4,0,3.6,0c1.2,0,2.3,0,3.2,0c1,0,1.7,0,2.3-0.1c-0.2,1.3-0.4,2.5-0.6,3.8
				c-0.2,1.2-0.4,2.5-0.6,3.8l-1.5,7.5c-0.5,0.1-1.2,0.1-2.1,0.1c-0.9,0-1.9,0-3.1,0c-1.2,0.1-2.4,0.1-3.7,0.1c-1.3,0-2.5,0-3.7,0.1
				c-1.4,0.1-2.9,0.1-4.4,0.1c-1.5,0-3.1,0-4.8,0.1l-5.5,25.2l23.6-3.1l-1.6,15.6L875.6,554.8z"/>
		</g>
	</g>
	<g>
		<text transform="matrix(1.18 0 0 1 65.9536 554.6517)" class="st14 st15 st16">Comic Universe</text>
	</g>
	<path class="st12" d="M1099.9,617"/>
</g>
</svg>
