<?xml version="1.0" encoding="UTF-8"?><svg id="Layer_4" xmlns="http://www.w3.org/2000/svg" viewBox="0 0 1086.27 953.19"><defs><style>.cls-1{fill:#f5c717;}.cls-1,.cls-2,.cls-3,.cls-4{stroke-width:0px;}.cls-2{fill:#a97029;}.cls-5{fill:#231f20;stroke-width:14px;}.cls-5,.cls-6{stroke:#231f20;stroke-miterlimit:10;}.cls-6{fill:#fff;stroke-width:16px;}.cls-3{fill:#fcb32a;}.cls-4{fill:#fee28a;}</style></defs><path class="cls-6" d="M558.34,603.59c-11.08,3.98-21.08,6.47-21.84,6.66-10.67,2.63-19.96,4.04-27.11,4.83-1.79,7.17-4.43,15.31-8.4,23.93-9.28,20.12-21.76,34.06-31.09,42.73,1.41-5.73,2.9-14.73,1.68-25.64-1.46-13.03-6.11-22.75-9.24-28.2-14.25.68-34.15,1.03-57.82-.6-36.28-2.49-65.53-4.5-93.41-16.49-9.49-4.08-75.13-33.52-85.7-89.74-2.68-14.25-1.87-27.26-1.72-28.84.91-9.59,4.04-26.85,21.31-52.44,18.52-27.44,39.1-44.57,52.89-55.23,8.88-6.87,16.73-12.05,22.46-15.61,0,0,0,0,0,0,.73-.37,50.36-27.72,71.65-37.55,18.12-8.37,32.24-11.68,51.85-16.29,30.79-7.23,114.93-26.99,197.13,11.19,24.29,11.28,47.86,22.63,61.65,48.63,10.5,19.8,16.23,49.83,11.15,78.28,0,.04-.02.12-.04.21-12.23,67.81-74.55,108.98-88.9,118.46,0,0-25.98,17.16-66.51,31.71Z"/><path class="cls-4" d="M714.32,481.7c39.74,24.89,45.48,38.18,43.48,45.71-7.95,29.84-153.71,28.92-279.9-13.26-111.33-37.21-226.34-112.15-215.68-145.47,5.55-17.36,44.39-20.79,78.79-20.68,11.69-6.83,24.91-13.7,39.67-20.08,28.42-12.3,54.85-19.48,77.08-23.76-30.47-9.4-77.79-20.78-136.27-21.45-39.97-.46-172.82-1.9-191.02,45.65-22.84,59.68,139.01,207.61,327.1,266.13,177.58,55.25,395.11,34.14,412.81-33.32,7.16-27.27-15.28-73.79-149.7-157.91,2.1,9.93,4,24.27,2.4,41.36-1.44,15.49-5.27,28.12-8.75,37.08Z"/><path class="cls-2" d="M363.92,335.72c-53.16-.99-119.95,2.64-128.58,30.14-12.29,39.18,97.57,113.59,192.69,151.79,154.28,61.96,339.82,57.39,352.1,13.17,3.2-11.53-3.6-32.1-59.6-70.59-2.07,7.15-4.14,14.31-6.21,21.46,40.07,25.12,45.44,38.34,43.48,45.71-8.47,31.75-173.58,30.52-316.49-26.71-87.66-35.11-189.17-100.65-179.09-132.01,5.49-17.1,43.14-20.8,78.79-20.68,7.64-4.09,15.28-8.18,22.91-12.27Z"/><path class="cls-3" d="M395.67,322.38c-106.91-15.54-191.45-3-201.16,29.04-11.02,36.37,70.92,109.09,116.82,140.43,3.02,2.06,5.27,3.56,6.56,4.43,47.55,31.89,89.4,46.65,126.15,59.61,86.22,30.41,152.95,35.59,190.61,38.12,33.11,2.22,56.11,1.49,80.99-3.18,26.16-4.92,92.15-17.33,99.92-52.96,4.79-21.97-13.97-43.96-30.26-62.97-21.78-25.41-46.5-38.66-61.52-45.25.08,5.31-.15,11.34-.99,17.93-.58,4.59-1.37,8.82-2.26,12.66,54.84,37.63,62.97,58.44,59.6,70.59-11.77,42.38-182.22,46.65-325-3.36-112.78-39.5-232.5-120.84-219.79-161.61,5.01-16.06,32.34-31.52,128.58-30.14,10.59-4.45,21.17-8.9,31.76-13.34Z"/><path class="cls-5" d="M81.77,536.99c-6.78,0-12.33-2.69-16.64-8.08-4.31-5.38-6.46-12.78-6.46-22.18,0-8.58,1.4-17.04,4.2-25.4,2.8-8.35,6.73-15.86,11.79-22.52,5.06-6.66,11.07-12.02,18.01-16.09,6.95-4.06,14.62-6.09,23.02-6.09,5.28,0,9.8,1.73,13.57,5.2,3.77,3.47,5.65,8.12,5.65,13.96v2.6c0,.27-.06.59-.16.96l-21.16,4.79c-1.29-2.28-2.8-3.42-4.52-3.42-2.58,0-5.31,1.78-8.16,5.34-2.85,3.56-5.57,7.8-8.16,12.73-1.72,3.29-3.26,6.66-4.6,10.13-1.35,3.47-2.4,6.71-3.15,9.72-.75,3.01-1.13,5.48-1.13,7.39,0,2.83.48,4.88,1.45,6.16.75,1.19,1.94,1.78,3.55,1.78s3.39-.66,5.33-1.99c1.94-1.32,3.74-2.99,5.41-5,1.67-2.01,2.77-4.02,3.31-6.02l18.42,6.3c-5.28,10.22-11.55,17.73-18.82,22.52-7.27,4.79-14.19,7.19-20.76,7.19Z"/><path class="cls-5" d="M148.48,537.26c-7.11,0-12.92-2.33-17.45-6.98s-6.79-11.68-6.79-21.08c0-5.2.75-10.68,2.26-16.43,1.51-5.75,3.61-11.41,6.3-16.98,2.69-5.57,5.82-10.72,9.37-15.47,5.71-7.67,12.28-13.92,19.71-18.76,7.43-4.84,15.24-7.26,23.42-7.26,6.46,0,11.44,1.39,14.94,4.18,3.5,2.79,5.95,6.34,7.35,10.68,1.4,4.34,2.1,8.83,2.1,13.49,0,10.86-1.97,20.97-5.9,30.32-3.93,9.36-9.02,17.27-15.27,23.75-6.25,6.66-12.9,11.75-19.95,15.26-7.05,3.51-13.76,5.27-20.11,5.27ZM157.21,514.67c4.85,0,9.13-1.37,12.84-4.11,3.72-2.74,6.87-6.23,9.45-10.47,2.59-4.24,4.52-8.69,5.82-13.35s1.94-8.85,1.94-12.6c0-1.46-.16-3.03-.48-4.72-.32-1.69-1.03-3.17-2.1-4.45-1.08-1.28-2.75-1.92-5.01-1.92-4.95,0-9.42,1.53-13.41,4.59-3.99,3.06-7.32,6.91-10.02,11.57-2.69,4.75-4.69,9.4-5.98,13.96-1.29,4.57-1.94,8.72-1.94,12.46,0,1.92.81,3.9,2.42,5.96,1.62,2.05,3.77,3.08,6.46,3.08Z"/><path class="cls-5" d="M194.04,535.89c4.74-12.23,9.26-24.14,13.57-35.73,1.83-4.74,3.72-9.81,5.65-15.2,1.94-5.38,3.88-10.79,5.82-16.22,1.94-5.43,3.77-10.66,5.49-15.68,1.72-5.02,3.18-9.49,4.36-13.42,5.92,0,11.52-.27,16.8-.82,2.69-.27,5.47-.55,8.32-.82,2.85-.27,5.79-.5,8.8-.68l-.97,6.71c-.22,1.28-.43,2.58-.65,3.9-.22,1.32-.43,2.67-.65,4.04-.22,1.37-.48,2.76-.81,4.18-.32,1.42-.59,2.85-.81,4.31-.43,2.83-1.08,6.78-1.94,11.84-.86,5.07-1.89,10.57-3.07,16.5h2.1c3.12-6.94,5.71-12.71,7.75-17.32,2.04-4.61,3.72-8.37,5.01-11.29,1.83-4.29,3.82-8.62,5.98-13.01,2.15-4.38,3.93-7.76,5.33-10.13,2.58-.18,5.68-.48,9.29-.89,3.61-.41,7.27-.89,10.99-1.44,3.72-.55,6.92-1,9.61-1.37-1.51,7.67-2.88,15.4-4.12,23.21-1.24,7.8-2.32,15.24-3.23,22.32-.92,7.07-1.7,13.44-2.34,19.1-.65,5.66-1.24,11.25-1.78,16.77-.54,5.52-1.08,10.98-1.62,16.36l-28.11,4.24c0-.18.16-2.24.48-6.16.32-3.92.86-8.81,1.62-14.65.75-5.84,1.51-11.38,2.26-16.63.75-5.25,1.51-9.56,2.26-12.94h-1.45c-2.69,6.94-5.95,14.51-9.77,22.73-3.82,8.21-7.57,17.3-11.23,27.24-3.77.09-7,.21-9.69.34-2.69.14-5.82.3-9.37.48l5.17-50.79h-2.42c-.11,1.01-.59,2.94-1.45,5.82-.86,2.87-1.89,6.16-3.07,9.86-1.19,3.7-2.42,7.37-3.72,11.02-4.85,14.33-7.43,21.9-7.75,22.73l-26.65,1.51Z"/><path class="cls-5" d="M299.68,536.58c1.51-5.29,3.01-11.29,4.52-18,1.51-6.71,3.01-13.67,4.52-20.88,1.51-7.21,2.91-14.15,4.2-20.81,1.18-5.84,2.34-11.77,3.47-17.8,1.13-6.02,2.23-12.09,3.31-18.21l25.2-3.42-7.27,36.01c-1.62,8.49-3.04,16.11-4.28,22.86-1.24,6.76-2.42,13.14-3.55,19.17s-2.29,12.18-3.47,18.48c-2.05,0-4.52.12-7.43.34-2.91.23-5.82.5-8.72.82-2.91.32-5.36.62-7.35.89-1.99.27-3.04.46-3.15.55Z"/><path class="cls-5" d="M360.91,536.99c-6.78,0-12.33-2.69-16.64-8.08-4.31-5.38-6.46-12.78-6.46-22.18,0-8.58,1.4-17.04,4.2-25.4,2.8-8.35,6.73-15.86,11.79-22.52,5.06-6.66,11.07-12.02,18.01-16.09,6.95-4.06,14.62-6.09,23.02-6.09,5.28,0,9.8,1.73,13.57,5.2,3.77,3.47,5.65,8.12,5.65,13.96v2.6c0,.27-.06.59-.16.96l-21.16,4.79c-1.29-2.28-2.8-3.42-4.52-3.42-2.58,0-5.31,1.78-8.16,5.34-2.85,3.56-5.57,7.8-8.16,12.73-1.72,3.29-3.26,6.66-4.6,10.13-1.35,3.47-2.4,6.71-3.15,9.72-.75,3.01-1.13,5.48-1.13,7.39,0,2.83.48,4.88,1.45,6.16.75,1.19,1.94,1.78,3.55,1.78s3.39-.66,5.33-1.99c1.94-1.32,3.74-2.99,5.41-5,1.67-2.01,2.77-4.02,3.31-6.02l18.42,6.3c-5.28,10.22-11.55,17.73-18.82,22.52-7.27,4.79-14.19,7.19-20.76,7.19Z"/><path class="cls-5" d="M456.54,539.18c-3.23,0-6.52-.59-9.85-1.78-3.34-1.19-6.14-3.01-8.4-5.48-2.26-2.46-3.39-5.61-3.39-9.45v-1.1c0-.46.05-.82.16-1.09.32-2.37.78-5.48,1.37-9.31.59-3.83,1.32-8.01,2.18-12.53.86-4.52,1.75-9.01,2.66-13.48.91-4.47,1.75-8.53,2.5-12.18,1.62-7.3,2.91-13.19,3.88-17.66.97-4.47,1.75-7.92,2.34-10.34.59-2.42,1.05-4.22,1.37-5.41l26.65-2.19c-1.4,5.57-2.72,10.84-3.96,15.81-1.24,4.98-2.4,9.7-3.47,14.17l-7.43,30.26c-.65,2.28-1.13,4.2-1.45,5.75-.43,1.46-.89,3.31-1.37,5.54-.48,2.24-.73,4.27-.73,6.09,0,1.46.43,2.67,1.29,3.63.86.96,1.94,1.44,3.23,1.44,1.83,0,3.34-.59,4.52-1.78,1.18-1.19,2.15-2.65,2.91-4.38.75-1.73,1.35-3.49,1.78-5.27.43-1.78.81-3.22,1.13-4.31,1.08-4.2,2.07-8.28,2.99-12.25.91-3.97,1.88-8.19,2.91-12.66,1.02-4.47,2.18-9.63,3.47-15.47.86-4.01,1.75-8.1,2.67-12.25.91-4.15,1.8-8.37,2.66-12.66l24.55-1.37-5.65,26.42c-.76,3.38-1.59,7.17-2.5,11.36-.92,4.2-1.91,8.44-2.99,12.73-1.08,4.29-2.07,8.35-2.99,12.18-.92,3.83-1.75,7.12-2.5,9.86-2.15,7.48-5.49,13.35-10.01,17.59-4.52,4.24-9.51,7.23-14.94,8.97-5.44,1.73-10.64,2.6-15.59,2.6Z"/><path class="cls-5" d="M498.38,537.4c3.23-13.14,6.3-25.87,9.21-38.2,2.37-11.59,4.69-22.73,6.95-33.4,2.26-10.68,3.88-20.49,4.85-29.43.75.09,1.43.14,2.02.14h4.93c2.8,0,5.92-.07,9.37-.21s6.62-.25,9.53-.34c.75,3.2,1.48,6.34,2.18,9.45.7,3.1,1.32,6.12,1.86,9.04.54,2.56,1.13,5.18,1.78,7.87.65,2.69,1.29,5.41,1.94,8.15.54,2.74,1.1,5.27,1.69,7.6.59,2.33,1.1,4.45,1.54,6.37,1.29-5.38,2.5-10.68,3.63-15.88,1.13-5.2,2.23-9.9,3.31-14.1l4.69-18.34,19.71-2.05c-1.83,6.94-3.55,13.74-5.17,20.4-1.62,6.66-3.13,13.1-4.52,19.3-2.69,11.14-5.06,21.63-7.11,31.49-2.05,9.86-3.61,18.44-4.68,25.74,1.18,0,.99.12-.57.34-1.56.23-3.85.55-6.87.96-3.02.41-6.25.94-9.69,1.57-3.45.64-6.52,1.42-9.21,2.33-.32-3.65-.65-7.21-.97-10.68-.32-3.47-.7-6.84-1.13-10.13-.65-5.84-1.4-11.64-2.26-17.39s-1.72-10.31-2.58-13.69c-.75,4.02-1.67,8.6-2.75,13.76-1.08,5.16-2.26,10.34-3.55,15.54l-4.52,19.17-23.58,4.65Z"/><path class="cls-5" d="M571.4,536.58c1.51-5.29,3.01-11.29,4.52-18,1.51-6.71,3.01-13.67,4.52-20.88,1.51-7.21,2.91-14.15,4.2-20.81,1.18-5.84,2.34-11.77,3.47-17.8,1.13-6.02,2.23-12.09,3.31-18.21l25.2-3.42-7.27,36.01c-1.62,8.49-3.04,16.11-4.28,22.86-1.24,6.76-2.42,13.14-3.56,19.17-1.13,6.02-2.29,12.18-3.47,18.48-2.05,0-4.52.12-7.43.34-2.91.23-5.82.5-8.72.82-2.91.32-5.36.62-7.35.89-1.99.27-3.04.46-3.15.55Z"/><path class="cls-5" d="M612.75,537.95c.75-6.39,1.45-12.73,2.1-19.03.65-6.3,1.24-12.5,1.78-18.62,1.18-11.13,2.13-22.09,2.83-32.86.7-10.77,1.16-20.85,1.37-30.26,8.4,0,16.8-.32,25.2-.96-.54,5.29-1.08,10.11-1.62,14.44-.54,4.34-1.02,8.19-1.45,11.57l-1.94,16.57c-.54,5.02-1,9.26-1.37,12.73-.38,3.47-.73,6.66-1.05,9.58-.32,2.92-.75,6.12-1.29,9.58h2.91l18.09-72.83,8.88-.41c1.4-.09,2.8-.16,4.2-.21,1.4-.05,2.85-.11,4.36-.21,1.51-.09,2.93-.18,4.28-.27,1.35-.09,2.61-.18,3.8-.27-2.05,5.39-4.12,11.41-6.22,18.07-2.1,6.66-4.2,13.55-6.3,20.67-2.1,7.12-4.23,14.15-6.38,21.08-1.72,5.84-3.45,11.8-5.17,17.87-1.72,6.07-3.45,12.21-5.17,18.41l-41.84,5.34Z"/><path class="cls-5" d="M665.73,536.85l21.16-97.34,51.05-3.7c-.75,2.01-1.4,4.06-1.94,6.16-.54,1.73-1.05,3.54-1.53,5.41-.49,1.87-.89,3.54-1.21,5-1.4.09-3.39.16-5.98.21-2.58.05-5.23.09-7.92.14-2.69.05-5.01.07-6.95.07h-3.07l-5.65,24.51,9.37-.41c1.18-.09,2.4-.14,3.63-.14h6.87c.97,0,1.72-.05,2.26-.14-.22,1.28-.4,2.53-.56,3.77-.16,1.23-.35,2.49-.56,3.77l-1.45,7.53c-.54.09-1.24.14-2.1.14h-3.07c-1.19.09-2.42.14-3.72.14s-2.53.05-3.71.14c-1.4.09-2.86.14-4.36.14s-3.13.05-4.85.14l-5.49,25.19,23.59-3.15-1.62,15.61-52.18,6.84Z"/><path class="cls-5" d="M720.17,536.85l8.4-35.59c1.29-6.57,2.69-13.32,4.2-20.26,1.51-6.94,2.93-13.78,4.28-20.54,1.35-6.75,2.4-13.1,3.15-19.03,6.14-1.64,12.76-2.85,19.87-3.63,7.11-.77,14.16-1.16,21.16-1.16,8.18,0,13.76,1.51,16.72,4.52,2.96,3.01,4.44,7.07,4.44,12.18,0,4.65-1.29,9.33-3.88,14.03-2.58,4.7-5.95,8.95-10.1,12.73-4.15,3.79-8.7,6.78-13.65,8.97,1.94,3.65,4.01,7.65,6.22,11.98,2.21,4.34,4.28,8.47,6.22,12.39,1.07,2.28,2.18,4.57,3.31,6.85,1.13,2.28,2.23,4.57,3.31,6.84l-25.04,7.39-5.82-16.43c-1.62-4.56-3.1-8.97-4.44-13.21-1.35-4.24-2.13-7.23-2.34-8.97l-2.1.55c-.32,1.46-.67,3.04-1.05,4.72-.38,1.69-.78,3.54-1.21,5.54-.43,2.01-.86,3.95-1.29,5.82-.43,1.87-.86,3.72-1.29,5.54l-2.91,13.01-26.17,5.75ZM758.14,477.44c1.94-.18,4.33-.89,7.19-2.12,2.85-1.23,5.71-2.76,8.56-4.59,2.85-1.83,5.25-3.7,7.19-5.61,1.94-1.92,2.91-3.6,2.91-5.07,0-1.82-1.27-3.03-3.8-3.63-2.53-.59-5.84-.89-9.93-.89h-3.55c-.65.09-1.24.14-1.78.14h-1.62l-5.17,21.77Z"/><path class="cls-5" d="M818.87,536.99c-4.31,0-8.62-.98-12.92-2.94-4.31-1.96-8.46-5.09-12.44-9.38l11.96-19.85c1.18,1.73,2.93,3.38,5.25,4.93,2.32,1.55,4.77,2.79,7.35,3.7,2.58.91,4.79,1.37,6.62,1.37,2.8,0,5.46-.73,8-2.19,2.53-1.46,3.8-3.42,3.8-5.89,0-3.19-1.72-6.11-5.17-8.76-3.45-2.65-7.32-5.25-11.63-7.8-4.2-2.55-8.05-5.45-11.55-8.69-3.5-3.24-5.25-6.96-5.25-11.16,0-4.74,1.62-9.15,4.85-13.21,3.23-4.06,7.43-7.62,12.6-10.68,5.17-3.06,10.69-5.43,16.56-7.12,5.87-1.69,11.44-2.53,16.72-2.53,3.77,0,7.27.53,10.5,1.57,3.23,1.05,5.82,2.76,7.75,5.13,1.94,2.37,2.91,5.57,2.91,9.58,0,.64-.03,1.28-.08,1.92-.06.64-.14,1.28-.24,1.92-.11.64-.24,1.3-.4,1.99-.16.68-.3,1.39-.4,2.12l-23.42,5.75c.21-.73.4-1.46.56-2.19.16-.73.24-1.46.24-2.19,0-2.74-.56-4.72-1.7-5.96-1.13-1.23-2.61-1.85-4.44-1.85-.97,0-2.37.43-4.2,1.3-1.83.87-3.47,2.05-4.93,3.56-1.45,1.51-2.18,3.17-2.18,5,0,3.01,1.48,5.5,4.44,7.46,2.96,1.96,6.38,3.95,10.26,5.96,1.83.91,3.88,2.35,6.14,4.31,2.26,1.96,4.22,4.61,5.9,7.94,1.67,3.33,2.5,7.6,2.5,12.8,0,6.76-1.97,12.69-5.9,17.8-3.93,5.11-9.24,9.1-15.91,11.98-6.68,2.87-14.05,4.31-22.13,4.31Z"/><path class="cls-5" d="M862,536.85l21.16-97.34,51.05-3.7c-.75,2.01-1.4,4.06-1.94,6.16-.54,1.73-1.05,3.54-1.53,5.41-.49,1.87-.89,3.54-1.21,5-1.4.09-3.39.16-5.98.21-2.58.05-5.23.09-7.92.14-2.69.05-5.01.07-6.95.07h-3.07l-5.65,24.51,9.37-.41c1.18-.09,2.4-.14,3.63-.14h6.87c.97,0,1.72-.05,2.26-.14-.22,1.28-.4,2.53-.56,3.77-.16,1.23-.35,2.49-.56,3.77l-1.45,7.53c-.54.09-1.24.14-2.1.14h-3.07c-1.19.09-2.42.14-3.72.14s-2.53.05-3.71.14c-1.4.09-2.86.14-4.36.14s-3.13.05-4.85.14l-5.49,25.19,23.59-3.15-1.62,15.61-52.18,6.84Z"/><path class="cls-1" d="M81.77,536.99c-6.78,0-12.33-2.69-16.64-8.08-4.31-5.38-6.46-12.78-6.46-22.18,0-8.58,1.4-17.04,4.2-25.4,2.8-8.35,6.73-15.86,11.79-22.52,5.06-6.66,11.07-12.02,18.01-16.09,6.95-4.06,14.62-6.09,23.02-6.09,5.28,0,9.8,1.73,13.57,5.2,3.77,3.47,5.65,8.12,5.65,13.96v2.6c0,.27-.06.59-.16.96l-21.16,4.79c-1.29-2.28-2.8-3.42-4.52-3.42-2.58,0-5.31,1.78-8.16,5.34-2.85,3.56-5.57,7.8-8.16,12.73-1.72,3.29-3.26,6.66-4.6,10.13-1.35,3.47-2.4,6.71-3.15,9.72-.75,3.01-1.13,5.48-1.13,7.39,0,2.83.48,4.88,1.45,6.16.75,1.19,1.94,1.78,3.55,1.78s3.39-.66,5.33-1.99c1.94-1.32,3.74-2.99,5.41-5,1.67-2.01,2.77-4.01,3.31-6.02l18.42,6.3c-5.28,10.22-11.55,17.73-18.82,22.52-7.27,4.79-14.19,7.19-20.76,7.19Z"/><path class="cls-1" d="M148.48,537.26c-7.11,0-12.92-2.33-17.45-6.98-4.52-4.65-6.78-11.68-6.78-21.08,0-5.2.75-10.68,2.26-16.43,1.51-5.75,3.61-11.41,6.3-16.98,2.69-5.57,5.82-10.72,9.37-15.47,5.71-7.67,12.28-13.92,19.71-18.76,7.43-4.84,15.24-7.26,23.42-7.26,6.46,0,11.44,1.39,14.94,4.18,3.5,2.79,5.95,6.34,7.35,10.68,1.4,4.34,2.1,8.83,2.1,13.49,0,10.86-1.97,20.97-5.9,30.32-3.93,9.36-9.02,17.27-15.27,23.75-6.25,6.66-12.9,11.75-19.95,15.26-7.06,3.51-13.76,5.27-20.11,5.27ZM157.2,514.67c4.85,0,9.13-1.37,12.84-4.11,3.72-2.74,6.87-6.23,9.45-10.47,2.58-4.24,4.52-8.69,5.82-13.35,1.29-4.65,1.94-8.85,1.94-12.59,0-1.46-.16-3.03-.48-4.72-.32-1.69-1.02-3.17-2.1-4.45-1.08-1.28-2.75-1.92-5.01-1.92-4.95,0-9.42,1.53-13.41,4.59-3.99,3.06-7.33,6.91-10.02,11.57-2.69,4.75-4.68,9.4-5.98,13.96-1.29,4.57-1.94,8.72-1.94,12.46,0,1.92.81,3.9,2.42,5.96,1.62,2.05,3.77,3.08,6.46,3.08Z"/><path class="cls-1" d="M194.04,535.89c4.74-12.23,9.26-24.14,13.57-35.73,1.83-4.75,3.72-9.81,5.65-15.2,1.94-5.38,3.88-10.79,5.82-16.22,1.94-5.43,3.77-10.65,5.49-15.68,1.72-5.02,3.18-9.49,4.36-13.42,5.92,0,11.52-.27,16.8-.82,2.69-.27,5.46-.55,8.32-.82,2.85-.27,5.79-.5,8.8-.68l-.97,6.71c-.22,1.28-.43,2.58-.65,3.9-.22,1.32-.43,2.67-.65,4.04-.22,1.37-.48,2.76-.81,4.18-.32,1.42-.59,2.85-.81,4.31-.43,2.83-1.08,6.78-1.94,11.84-.86,5.07-1.89,10.56-3.07,16.5h2.1c3.12-6.93,5.71-12.71,7.75-17.32,2.04-4.61,3.72-8.37,5.01-11.29,1.83-4.29,3.82-8.62,5.98-13.01,2.15-4.38,3.93-7.76,5.33-10.13,2.58-.18,5.68-.48,9.29-.89,3.61-.41,7.27-.89,10.98-1.44,3.72-.55,6.92-1,9.61-1.37-1.51,7.67-2.88,15.4-4.12,23.21-1.24,7.8-2.32,15.24-3.23,22.31-.92,7.07-1.7,13.44-2.34,19.1-.65,5.66-1.24,11.25-1.78,16.77-.54,5.52-1.08,10.98-1.62,16.36l-28.11,4.24c0-.18.16-2.24.48-6.16.32-3.92.86-8.81,1.62-14.65.75-5.84,1.51-11.38,2.26-16.63.75-5.25,1.51-9.56,2.26-12.94h-1.45c-2.69,6.94-5.95,14.51-9.77,22.73-3.82,8.21-7.57,17.3-11.23,27.24-3.77.09-7,.21-9.69.34-2.69.14-5.82.3-9.37.48l5.17-50.79h-2.42c-.11,1-.59,2.94-1.45,5.82-.86,2.88-1.89,6.16-3.07,9.86-1.19,3.7-2.42,7.37-3.72,11.02-4.85,14.33-7.43,21.9-7.75,22.73l-26.65,1.51Z"/><path class="cls-1" d="M299.68,536.58c1.51-5.29,3.01-11.29,4.52-18,1.51-6.71,3.01-13.67,4.52-20.88,1.51-7.21,2.91-14.15,4.2-20.81,1.18-5.84,2.34-11.77,3.47-17.8,1.13-6.02,2.23-12.09,3.31-18.21l25.2-3.42-7.27,36.01c-1.62,8.49-3.04,16.11-4.28,22.86-1.24,6.75-2.42,13.14-3.55,19.17s-2.29,12.18-3.47,18.48c-2.05,0-4.52.12-7.43.34-2.91.23-5.82.5-8.72.82-2.91.32-5.36.62-7.35.89-1.99.27-3.04.46-3.15.55Z"/><path class="cls-1" d="M360.91,536.99c-6.78,0-12.33-2.69-16.64-8.08-4.31-5.38-6.46-12.78-6.46-22.18,0-8.58,1.4-17.04,4.2-25.4,2.8-8.35,6.73-15.86,11.79-22.52,5.06-6.66,11.07-12.02,18.01-16.09,6.95-4.06,14.62-6.09,23.02-6.09,5.28,0,9.8,1.73,13.57,5.2,3.77,3.47,5.65,8.12,5.65,13.96v2.6c0,.27-.06.59-.16.96l-21.16,4.79c-1.29-2.28-2.8-3.42-4.52-3.42-2.58,0-5.31,1.78-8.16,5.34-2.85,3.56-5.57,7.8-8.16,12.73-1.72,3.29-3.26,6.66-4.6,10.13-1.35,3.47-2.4,6.71-3.15,9.72-.75,3.01-1.13,5.48-1.13,7.39,0,2.83.48,4.88,1.45,6.16.75,1.19,1.94,1.78,3.55,1.78s3.39-.66,5.33-1.99c1.94-1.32,3.74-2.99,5.41-5,1.67-2.01,2.77-4.01,3.31-6.02l18.42,6.3c-5.28,10.22-11.55,17.73-18.82,22.52-7.27,4.79-14.19,7.19-20.76,7.19Z"/><path class="cls-1" d="M456.54,539.18c-3.23,0-6.52-.59-9.85-1.78-3.34-1.19-6.14-3.01-8.4-5.48-2.26-2.46-3.39-5.61-3.39-9.45v-1.09c0-.46.05-.82.16-1.09.32-2.37.78-5.48,1.37-9.31.59-3.83,1.32-8.01,2.18-12.53.86-4.52,1.75-9.01,2.67-13.48.91-4.47,1.75-8.53,2.5-12.18,1.62-7.3,2.91-13.19,3.88-17.66.97-4.47,1.75-7.92,2.34-10.34.59-2.42,1.05-4.22,1.37-5.41l26.65-2.19c-1.4,5.57-2.72,10.84-3.96,15.81-1.24,4.98-2.4,9.7-3.47,14.17l-7.43,30.26c-.65,2.28-1.13,4.2-1.45,5.75-.43,1.46-.89,3.31-1.37,5.54-.48,2.24-.73,4.27-.73,6.09,0,1.46.43,2.67,1.29,3.63.86.96,1.94,1.44,3.23,1.44,1.83,0,3.34-.59,4.52-1.78,1.18-1.19,2.15-2.65,2.91-4.38.75-1.73,1.35-3.49,1.78-5.27.43-1.78.81-3.22,1.13-4.31,1.08-4.2,2.07-8.28,2.99-12.25.91-3.97,1.88-8.19,2.91-12.66,1.02-4.47,2.18-9.63,3.47-15.47.86-4.02,1.75-8.1,2.67-12.25.91-4.15,1.8-8.37,2.66-12.66l24.55-1.37-5.65,26.42c-.75,3.38-1.59,7.17-2.5,11.36-.92,4.2-1.91,8.44-2.99,12.73-1.08,4.29-2.07,8.35-2.99,12.18-.92,3.83-1.75,7.12-2.5,9.86-2.16,7.49-5.49,13.35-10.02,17.59-4.52,4.24-9.51,7.24-14.94,8.97-5.44,1.73-10.64,2.6-15.59,2.6Z"/><path class="cls-1" d="M498.38,537.4c3.23-13.14,6.3-25.88,9.21-38.2,2.37-11.59,4.68-22.73,6.95-33.4,2.26-10.68,3.88-20.49,4.85-29.43.75.09,1.43.14,2.02.14h4.93c2.8,0,5.92-.07,9.37-.21,3.45-.14,6.62-.25,9.53-.34.75,3.2,1.48,6.34,2.18,9.45.7,3.1,1.32,6.12,1.86,9.04.54,2.56,1.13,5.18,1.78,7.87.65,2.69,1.29,5.41,1.94,8.15.54,2.74,1.1,5.27,1.7,7.6.59,2.33,1.1,4.45,1.54,6.37,1.29-5.38,2.5-10.68,3.63-15.88,1.13-5.2,2.23-9.9,3.31-14.1l4.69-18.35,19.71-2.05c-1.83,6.94-3.55,13.74-5.17,20.4-1.62,6.66-3.12,13.1-4.52,19.3-2.69,11.14-5.06,21.63-7.11,31.49-2.05,9.86-3.61,18.44-4.68,25.74,1.18,0,.99.12-.57.34-1.56.23-3.85.55-6.87.96-3.02.41-6.25.94-9.69,1.57-3.45.64-6.52,1.42-9.21,2.33-.32-3.65-.65-7.21-.97-10.68-.32-3.47-.7-6.85-1.13-10.13-.65-5.84-1.4-11.64-2.26-17.39-.86-5.75-1.72-10.31-2.58-13.69-.75,4.02-1.67,8.6-2.75,13.76-1.08,5.16-2.26,10.34-3.55,15.54l-4.52,19.17-23.58,4.65Z"/><path class="cls-1" d="M571.39,536.58c1.51-5.29,3.01-11.29,4.52-18,1.51-6.71,3.01-13.67,4.52-20.88,1.51-7.21,2.91-14.15,4.2-20.81,1.18-5.84,2.34-11.77,3.47-17.8,1.13-6.02,2.23-12.09,3.31-18.21l25.2-3.42-7.27,36.01c-1.62,8.49-3.04,16.11-4.28,22.86-1.24,6.75-2.42,13.14-3.55,19.17s-2.29,12.18-3.47,18.48c-2.05,0-4.52.12-7.43.34-2.91.23-5.82.5-8.72.82-2.91.32-5.36.62-7.35.89-1.99.27-3.04.46-3.15.55Z"/><path class="cls-1" d="M612.75,537.95c.75-6.39,1.45-12.73,2.1-19.03.65-6.3,1.24-12.5,1.78-18.62,1.18-11.13,2.12-22.09,2.83-32.86.7-10.77,1.16-20.85,1.37-30.26,8.4,0,16.8-.32,25.2-.96-.54,5.29-1.08,10.11-1.62,14.44-.54,4.34-1.02,8.19-1.45,11.57l-1.94,16.57c-.54,5.02-1,9.26-1.37,12.73-.38,3.47-.73,6.66-1.05,9.58-.32,2.92-.75,6.12-1.29,9.58h2.91l18.09-72.83,8.88-.41c1.4-.09,2.8-.16,4.2-.21,1.4-.04,2.85-.11,4.36-.21,1.51-.09,2.93-.18,4.28-.27,1.35-.09,2.61-.18,3.8-.27-2.05,5.39-4.12,11.41-6.22,18.07-2.1,6.66-4.2,13.55-6.3,20.67-2.1,7.12-4.23,14.15-6.38,21.08-1.72,5.84-3.45,11.8-5.17,17.87-1.72,6.07-3.45,12.21-5.17,18.41l-41.84,5.34Z"/><path class="cls-1" d="M665.73,536.85l21.16-97.34,51.05-3.7c-.75,2.01-1.4,4.06-1.94,6.16-.54,1.73-1.05,3.54-1.53,5.41-.49,1.87-.89,3.54-1.21,5-1.4.09-3.39.16-5.98.21-2.58.05-5.22.09-7.92.14-2.69.05-5.01.07-6.95.07h-3.07l-5.65,24.51,9.37-.41c1.18-.09,2.4-.14,3.63-.14h6.87c.97,0,1.72-.04,2.26-.14-.22,1.28-.4,2.53-.57,3.76-.16,1.23-.35,2.49-.57,3.77l-1.45,7.53c-.54.09-1.24.14-2.1.14h-3.07c-1.19.09-2.42.14-3.72.14s-2.53.05-3.72.14c-1.4.09-2.85.14-4.36.14s-3.12.05-4.85.14l-5.49,25.19,23.58-3.15-1.62,15.61-52.18,6.84Z"/><path class="cls-1" d="M720.17,536.85l8.4-35.59c1.29-6.57,2.69-13.32,4.2-20.26,1.51-6.94,2.93-13.78,4.28-20.54,1.35-6.75,2.4-13.1,3.15-19.03,6.14-1.64,12.76-2.85,19.87-3.63,7.11-.77,14.16-1.16,21.16-1.16,8.18,0,13.76,1.51,16.72,4.52,2.96,3.01,4.44,7.07,4.44,12.18,0,4.65-1.29,9.33-3.88,14.03-2.58,4.7-5.95,8.95-10.1,12.73-4.15,3.79-8.7,6.78-13.65,8.97,1.94,3.65,4.01,7.65,6.22,11.98,2.21,4.34,4.28,8.47,6.22,12.39,1.08,2.28,2.18,4.57,3.31,6.85,1.13,2.28,2.23,4.56,3.31,6.84l-25.04,7.39-5.82-16.43c-1.62-4.56-3.1-8.97-4.44-13.21-1.35-4.24-2.13-7.23-2.34-8.97l-2.1.55c-.32,1.46-.67,3.04-1.05,4.72-.38,1.69-.78,3.54-1.21,5.54-.43,2.01-.86,3.95-1.29,5.82-.43,1.87-.86,3.72-1.29,5.54l-2.91,13-26.17,5.75ZM758.13,477.44c1.94-.18,4.33-.89,7.19-2.12,2.85-1.23,5.71-2.76,8.56-4.59,2.85-1.82,5.25-3.7,7.19-5.61,1.94-1.92,2.91-3.6,2.91-5.07,0-1.82-1.27-3.03-3.8-3.63-2.53-.59-5.84-.89-9.93-.89h-3.55c-.65.09-1.24.14-1.78.14h-1.62l-5.17,21.77Z"/><path class="cls-1" d="M818.87,536.99c-4.31,0-8.62-.98-12.92-2.94-4.31-1.96-8.46-5.09-12.44-9.38l11.95-19.85c1.18,1.74,2.93,3.38,5.25,4.93,2.31,1.55,4.77,2.79,7.35,3.7,2.58.91,4.79,1.37,6.62,1.37,2.8,0,5.46-.73,8-2.19,2.53-1.46,3.8-3.42,3.8-5.89,0-3.19-1.72-6.11-5.17-8.76-3.45-2.65-7.33-5.25-11.63-7.8-4.2-2.55-8.05-5.45-11.55-8.69-3.5-3.24-5.25-6.96-5.25-11.16,0-4.74,1.62-9.15,4.85-13.21,3.23-4.06,7.43-7.62,12.6-10.68,5.17-3.06,10.69-5.43,16.56-7.12,5.87-1.69,11.44-2.53,16.72-2.53,3.77,0,7.27.53,10.5,1.57,3.23,1.05,5.82,2.76,7.75,5.13,1.94,2.37,2.91,5.57,2.91,9.58,0,.64-.03,1.28-.08,1.92-.06.64-.14,1.28-.24,1.92-.11.64-.24,1.3-.4,1.98-.16.68-.3,1.39-.4,2.12l-23.42,5.75c.21-.73.4-1.46.57-2.19.16-.73.24-1.46.24-2.19,0-2.74-.57-4.72-1.7-5.96-1.13-1.23-2.61-1.85-4.44-1.85-.97,0-2.37.43-4.2,1.3-1.83.87-3.47,2.05-4.93,3.56-1.45,1.51-2.18,3.17-2.18,5,0,3.01,1.48,5.5,4.44,7.46,2.96,1.96,6.38,3.95,10.26,5.96,1.83.91,3.88,2.35,6.14,4.31,2.26,1.96,4.23,4.61,5.9,7.94,1.67,3.33,2.5,7.6,2.5,12.8,0,6.75-1.97,12.69-5.9,17.8-3.93,5.11-9.24,9.1-15.91,11.98-6.68,2.88-14.05,4.31-22.13,4.31Z"/><path class="cls-1" d="M862,536.85l21.16-97.34,51.05-3.7c-.75,2.01-1.4,4.06-1.94,6.16-.54,1.73-1.05,3.54-1.53,5.41-.49,1.87-.89,3.54-1.21,5-1.4.09-3.39.16-5.98.21-2.58.05-5.22.09-7.92.14-2.69.05-5.01.07-6.95.07h-3.07l-5.65,24.51,9.37-.41c1.18-.09,2.4-.14,3.63-.14h6.87c.97,0,1.72-.04,2.26-.14-.22,1.28-.4,2.53-.57,3.76-.16,1.23-.35,2.49-.57,3.77l-1.45,7.53c-.54.09-1.24.14-2.1.14h-3.07c-1.19.09-2.42.14-3.72.14s-2.53.05-3.72.14c-1.4.09-2.85.14-4.36.14s-3.12.05-4.85.14l-5.49,25.19,23.58-3.15-1.62,15.61-52.18,6.84Z"/></svg>
