<?xml version="1.0" encoding="UTF-8"?>
<!DOCTYPE svg PUBLIC "-//W3C//DTD SVG 1.1//EN" "http://www.w3.org/Graphics/SVG/1.1/DTD/svg11.dtd">
<svg
      xmlns="http://www.w3.org/2000/svg"
      version="1.1"
      width="600px"
      height="480px"
      style="shape-rendering:geometricPrecision; text-rendering:geometricPrecision; image-rendering:optimizeQuality; fill-rule:evenodd; clip-rule:evenodd"
      xmlns:xlink="http://www.w3.org/1999/xlink"
    >
      <g>
        <path
          style="opacity:1"
          fill="#090604"
          d="M 456.5,262.5 C 456.5,261.5 456.5,260.5 456.5,259.5C 456.758,254.434 457.425,249.434 458.5,244.5C 457.675,243.614 456.675,243.281 455.5,243.5C 455.5,247.5 455.5,251.5 455.5,255.5C 454.523,258.287 454.19,261.287 454.5,264.5C 450.5,264.5 446.5,264.5 442.5,264.5C 437.588,265.026 432.922,264.359 428.5,262.5C 421.55,263.63 414.55,263.797 407.5,263C 403.554,261.694 399.888,259.861 396.5,257.5C 394.684,258.815 393.017,260.315 391.5,262C 388.956,263.092 386.289,263.759 383.5,264C 365.466,279.518 344.799,290.018 321.5,295.5C 320.1,301.635 317.6,307.301 314,312.5C 308,319.833 301.333,326.5 294,332.5C 295.214,327.481 296.047,322.315 296.5,317C 296.876,311.965 295.543,307.465 292.5,303.5C 277.488,302.809 262.488,301.976 247.5,301C 226.683,297.496 209.183,287.996 195,272.5C 193.247,269.995 191.747,267.329 190.5,264.5C 179.906,263.537 169.24,263.537 158.5,264.5C 149.928,264.024 141.428,263.357 133,262.5C 123.835,266.428 114.668,266.428 105.5,262.5C 93.3024,264.355 81.3024,263.522 69.5,260C 65.5095,258.01 63.0095,254.843 62,250.5C 60.4179,235.546 60.0845,220.546 61,205.5C 65.2588,198.783 71.4255,195.283 79.5,195C 86.8333,194.333 94.1667,194.333 101.5,195C 103.587,195.792 105.421,196.959 107,198.5C 109.403,202.876 110.903,207.543 111.5,212.5C 120.849,210.788 130.015,211.454 139,214.5C 145.847,211.859 152.68,211.859 159.5,214.5C 165.567,210.56 171.567,210.56 177.5,214.5C 181.21,212.31 185.21,211.31 189.5,211.5C 189.599,205.673 190.599,200.007 192.5,194.5C 196.637,195.91 200.804,197.243 205,198.5C 245.075,160.03 292.908,143.863 348.5,150C 364.891,152.128 379.891,157.795 393.5,167C 407.87,177.907 415.204,192.407 415.5,210.5C 428.97,212.233 442.303,211.566 455.5,208.5C 456.429,209.689 456.762,211.022 456.5,212.5C 465.005,211.972 473.505,211.305 482,210.5C 487.135,210.711 491.969,212.045 496.5,214.5C 499.05,213.058 501.716,211.892 504.5,211C 510.5,210.333 516.5,210.333 522.5,211C 533.287,213.616 538.62,220.449 538.5,231.5C 538.025,238.169 537.525,244.835 537,251.5C 536.191,255.625 534.024,258.792 530.5,261C 519.081,264.495 507.748,264.328 496.5,260.5C 494.058,261.036 491.725,261.869 489.5,263C 478.493,263.452 467.493,263.285 456.5,262.5 Z"
        />
      </g>
      <g>
        <path
          style="opacity:1"
          fill="#fbfbfb"
          d="M 336.5,216.5 C 335.791,215.596 334.791,215.263 333.5,215.5C 333.795,213.265 333.461,211.265 332.5,209.5C 327.115,210.244 321.782,211.244 316.5,212.5C 316.5,206.167 316.5,199.833 316.5,193.5C 314.265,193.205 312.265,193.539 310.5,194.5C 302.5,195.167 294.5,195.833 286.5,196.5C 286.5,198.5 286.5,200.5 286.5,202.5C 279.076,201.144 271.743,199.477 264.5,197.5C 264.333,214.503 264.5,231.503 265,248.5C 266.473,256.639 271.306,261.473 279.5,263C 286.492,263.5 293.492,263.666 300.5,263.5C 300.5,264.5 300.5,265.5 300.5,266.5C 317.453,264.734 334.453,263.734 351.5,263.5C 355.702,263.183 359.702,263.517 363.5,264.5C 347.525,274.983 330.192,282.483 311.5,287C 310.189,290.354 309.356,293.854 309,297.5C 308.252,299.332 307.252,300.999 306,302.5C 303.5,298.833 301,295.167 298.5,291.5C 285.862,291.317 273.195,291.151 260.5,291C 242.438,289.537 226.105,283.537 211.5,273C 208.462,270.297 205.795,267.297 203.5,264C 220.67,264.187 237.67,262.687 254.5,259.5C 253.528,251.156 253.528,242.823 254.5,234.5C 255.059,225.635 251.726,218.802 244.5,214C 238.712,212.576 232.879,211.409 227,210.5C 224.001,210.481 221.168,211.148 218.5,212.5C 217.343,209.216 217.176,205.882 218,202.5C 243.255,179.127 273.088,165.293 307.5,161C 334.287,157.226 359.62,161.559 383.5,174C 397.755,183.344 404.422,196.511 403.5,213.5C 396.8,213.83 390.134,213.497 383.5,212.5C 383.038,210.709 381.871,209.709 380,209.5C 376.074,210.273 372.241,211.273 368.5,212.5C 368.5,208.833 368.5,205.167 368.5,201.5C 360.053,199.638 351.72,197.304 343.5,194.5C 341.712,201.708 340.712,209.041 340.5,216.5C 339.167,216.5 337.833,216.5 336.5,216.5 Z"
        />
      </g>
      <g>
        <path
          style="opacity:1"
          fill="#f5c713"
          d="M 88.5,247.5 C 89.4731,245.052 89.8064,242.385 89.5,239.5C 91.5,239.5 93.5,239.5 95.5,239.5C 97.8333,239.5 100.167,239.5 102.5,239.5C 102.497,244.527 102.164,249.527 101.5,254.5C 91.6845,255.073 82.0178,254.24 72.5,252C 70.357,249.242 69.1903,246.076 69,242.5C 68.3333,231.167 68.3333,219.833 69,208.5C 71.5762,205.858 74.7429,204.358 78.5,204C 85.856,203.169 93.1893,203.335 100.5,204.5C 101.451,209.77 101.785,215.103 101.5,220.5C 97.5,220.5 93.5,220.5 89.5,220.5C 89.7839,217.223 89.4505,214.057 88.5,211C 85.1351,208.843 81.9684,209.009 79,211.5C 78.3333,223.167 78.3333,234.833 79,246.5C 81.9277,248.75 85.0944,249.084 88.5,247.5 Z"
        />
      </g>
      <g>
        <path
          style="opacity:1"
          fill="#f5c713"
          d="M 298.5,203.5 C 301.5,203.5 304.5,203.5 307.5,203.5C 307.667,218.17 307.5,232.837 307,247.5C 305.629,252.198 302.463,254.698 297.5,255C 290.633,256.034 283.967,255.367 277.5,253C 276.667,252.167 275.833,251.333 275,250.5C 273.536,236.932 273.036,223.265 273.5,209.5C 276.833,209.833 280.167,210.167 283.5,210.5C 283.333,222.505 283.5,234.505 284,246.5C 287.209,247.854 290.376,247.687 293.5,246C 294.49,232.246 294.823,218.412 294.5,204.5C 296.099,204.768 297.432,204.434 298.5,203.5 Z"
        />
      </g>
      <g>
        <path
          style="opacity:1"
          fill="#f5c713"
          d="M 198.5,205.5 C 201.573,206.199 204.573,207.199 207.5,208.5C 208.489,212.107 208.823,215.774 208.5,219.5C 204.833,219.5 201.167,219.5 197.5,219.5C 197.437,214.797 197.771,210.13 198.5,205.5 Z"
        />
      </g>
      <g>
        <path
          style="opacity:1"
          fill="#f5c713"
          d="M 349.5,205.5 C 352.711,206.355 355.878,207.355 359,208.5C 359.499,212.152 359.665,215.818 359.5,219.5C 355.833,219.5 352.167,219.5 348.5,219.5C 348.669,214.819 349.002,210.152 349.5,205.5 Z"
        />
      </g>
      <g>
        <path
          style="opacity:1"
          fill="#f5c713"
          d="M 421.5,244.5 C 425.064,243.577 428.731,243.244 432.5,243.5C 432.425,246.206 432.092,248.873 431.5,251.5C 431.047,252.458 430.381,253.292 429.5,254C 422.167,254.667 414.833,254.667 407.5,254C 405.061,253.226 403.227,251.726 402,249.5C 401.333,242.5 401.333,235.5 402,228.5C 402.668,224.501 404.835,221.668 408.5,220C 414.833,219.333 421.167,219.333 427.5,220C 433.908,223.323 436.075,228.489 434,235.5C 432.786,237.049 431.286,238.215 429.5,239C 422.5,239.577 415.5,240.077 408.5,240.5C 408.297,242.39 408.963,243.89 410.5,245C 414.358,245.81 418.024,245.643 421.5,244.5 Z"
        />
      </g>
      <g>
        <path
          style="opacity:1"
          fill="#f5c713"
          d="M 449.5,234.5 C 448.883,234.611 448.383,234.944 448,235.5C 447.667,241.833 447.333,248.167 447,254.5C 444.281,255.444 441.448,255.777 438.5,255.5C 438.5,247.167 438.5,238.833 438.5,230.5C 438.5,227.167 438.5,223.833 438.5,220.5C 441.247,220.187 443.914,220.52 446.5,221.5C 447.337,223.505 448.837,224.505 451,224.5C 455.346,222.831 459.846,222.164 464.5,222.5C 464.666,226.514 464.499,230.514 464,234.5C 459.067,233.176 454.234,233.176 449.5,234.5 Z"
        />
      </g>
      <g>
        <path
          style="opacity:1"
          fill="#f5c713"
          d="M 517.5,244.5 C 521.064,243.577 524.731,243.244 528.5,243.5C 528.5,245.5 528.5,247.5 528.5,249.5C 528.141,251.371 527.141,252.871 525.5,254C 518.167,254.667 510.833,254.667 503.5,254C 500.943,253.315 499.109,251.815 498,249.5C 497.333,242.167 497.333,234.833 498,227.5C 499.105,224.063 501.272,221.563 504.5,220C 510.833,219.333 517.167,219.333 523.5,220C 529.908,223.323 532.075,228.489 530,235.5C 528.681,237.487 526.848,238.654 524.5,239C 517.842,239.5 511.175,239.666 504.5,239.5C 504.178,241.722 504.845,243.556 506.5,245C 510.255,245.755 513.922,245.589 517.5,244.5 Z"
        />
      </g>
      <g>
        <path
          style="opacity:1"
          fill="#f5c713"
          d="M 222.5,219.5 C 228.994,219.166 235.327,219.999 241.5,222C 245.027,226.166 246.36,230.999 245.5,236.5C 242.333,236.6 239.333,235.933 236.5,234.5C 237.577,230.11 235.91,226.943 231.5,225C 230.056,224.219 228.723,224.386 227.5,225.5C 226.667,227.167 225.833,228.833 225,230.5C 224.333,236.5 224.333,242.5 225,248.5C 227.498,249.598 229.998,249.432 232.5,248C 234.037,246.89 234.703,245.39 234.5,243.5C 237.833,243.5 241.167,243.5 244.5,243.5C 244.5,246.5 244.5,249.5 244.5,252.5C 235.205,253.848 225.871,254.348 216.5,254C 215.692,253.692 215.025,253.192 214.5,252.5C 212.872,243.057 213.372,233.723 216,224.5C 217.965,222.45 220.132,220.783 222.5,219.5 Z"
        />
      </g>
      <g>
        <path
          style="opacity:1"
          fill="#f5c713"
          d="M 112.5,220.5 C 119.175,220.334 125.842,220.5 132.5,221C 135.057,221.685 136.891,223.185 138,225.5C 138.667,231.833 138.667,238.167 138,244.5C 133.034,255.727 124.534,259.561 112.5,256C 108.426,252.457 106.259,247.957 106,242.5C 105.333,237.5 105.333,232.5 106,227.5C 107.694,224.642 109.861,222.309 112.5,220.5 Z"
        />
      </g>
      <g>
        <path
          style="opacity:1"
          fill="#f5c713"
          d="M 172.5,254.5 C 168.833,254.5 165.167,254.5 161.5,254.5C 161.5,251.5 161.5,248.5 161.5,245.5C 161.666,240.489 161.499,235.489 161,230.5C 156.885,227.843 152.885,228.177 149,231.5C 148.501,235.152 148.335,238.818 148.5,242.5C 147.517,246.298 147.183,250.298 147.5,254.5C 145.833,254.5 144.167,254.5 142.5,254.5C 142.5,243.5 142.5,232.5 142.5,221.5C 146.846,221.334 151.179,221.501 155.5,222C 156.354,223.022 157.354,223.855 158.5,224.5C 162.409,221.534 166.742,220.367 171.5,221C 172.119,222.757 173.286,223.924 175,224.5C 179.886,221.866 185.053,220.7 190.5,221C 191.834,223.66 192.668,226.494 193,229.5C 193.5,237.827 193.666,246.16 193.5,254.5C 191.167,254.5 188.833,254.5 186.5,254.5C 186.666,249.156 186.499,243.823 186,238.5C 184.352,236.972 182.352,236.305 180,236.5C 177.648,236.305 175.648,236.972 174,238.5C 173.827,244.016 173.327,249.349 172.5,254.5 Z"
        />
      </g>
      <g>
        <path
          style="opacity:1"
          fill="#f5c713"
          d="M 330.5,254.5 C 330.666,247.825 330.5,241.158 330,234.5C 327.661,232.922 325.828,233.255 324.5,235.5C 324.167,235.5 323.833,235.5 323.5,235.5C 322.509,241.979 322.176,248.646 322.5,255.5C 319.167,255.5 315.833,255.5 312.5,255.5C 313.939,244.902 314.939,234.236 315.5,223.5C 315.369,222.624 315.702,221.957 316.5,221.5C 318.833,220.833 321.167,220.167 323.5,219.5C 324.452,221.045 324.785,222.712 324.5,224.5C 329.179,224.334 333.845,224.501 338.5,225C 344.091,227.678 346.424,232.178 345.5,238.5C 345.221,243.891 344.554,249.225 343.5,254.5C 339.167,254.5 334.833,254.5 330.5,254.5 Z"
        />
      </g>
      <g>
        <path
          style="opacity:1"
          fill="#f5c713"
          d="M 373.5,219.5 C 374.675,219.281 375.675,219.614 376.5,220.5C 378.221,227.024 380.887,233.024 384.5,238.5C 385.086,238.291 385.586,237.957 386,237.5C 387.644,232.923 388.978,228.256 390,223.5C 392.719,222.556 395.552,222.223 398.5,222.5C 397.316,233.551 393.816,243.884 388,253.5C 383.593,256.055 379.259,255.721 375,252.5C 370.514,243.361 367.014,233.861 364.5,224C 364.645,223.228 364.978,222.561 365.5,222C 368.379,221.454 371.046,220.621 373.5,219.5 Z"
        />
      </g>
      <g>
        <path
          style="opacity:1"
          fill="#090604"
          d="M 115.5,225.5 C 127.511,223.014 131.677,227.681 128,239.5C 126.471,242.934 123.804,244.6 120,244.5C 117.966,244.646 116.299,243.98 115,242.5C 112.899,236.731 113.066,231.064 115.5,225.5 Z"
        />
      </g>
      <g>
        <path
          style="opacity:1"
          fill="#090604"
          d="M 408.5,227.5 C 412.637,227.146 416.637,227.646 420.5,229C 421.591,231.064 421.758,233.231 421,235.5C 416.237,236.394 411.403,237.061 406.5,237.5C 406.034,233.838 406.701,230.505 408.5,227.5 Z"
        />
      </g>
      <g>
        <path
          style="opacity:1"
          fill="#090604"
          d="M 504.5,227.5 C 508.637,227.146 512.637,227.646 516.5,229C 517.982,231.592 517.648,233.925 515.5,236C 511.145,236.634 506.812,236.967 502.5,237C 500.861,233.327 501.528,230.16 504.5,227.5 Z"
        />
      </g>
      <g>
        <path
          style="opacity:1"
          fill="#f5c713"
          d="M 205.5,227.5 C 206.833,227.5 208.167,227.5 209.5,227.5C 209.374,236.509 209.041,245.509 208.5,254.5C 205.167,254.5 201.833,254.5 198.5,254.5C 198.5,250.5 198.5,246.5 198.5,242.5C 198.5,237.833 198.5,233.167 198.5,228.5C 201.059,228.802 203.393,228.468 205.5,227.5 Z"
        />
      </g>
      <g>
        <path
          style="opacity:1"
          fill="#f5c713"
          d="M 350.5,229.5 C 353.448,229.223 356.281,229.556 359,230.5C 359.5,238.159 359.666,245.826 359.5,253.5C 356.5,253.5 353.5,253.5 350.5,253.5C 350.5,245.5 350.5,237.5 350.5,229.5 Z"
        />
      </g>
      <g>
        <path
          style="opacity:1"
          fill="#f5c713"
          d="M 476.5,219.5 C 481.297,219.121 485.964,219.621 490.5,221C 492.747,222.995 493.747,225.495 493.5,228.5C 489.5,228.5 485.5,228.5 481.5,228.5C 481.351,229.552 481.517,230.552 482,231.5C 485.966,234.464 489.633,237.797 493,241.5C 496.146,249.702 493.313,254.202 484.5,255C 478.15,255.524 471.816,255.358 465.5,254.5C 465.669,249.161 467.335,244.328 470.5,240C 473.412,240.767 476.412,241.601 479.5,242.5C 483.073,242.573 484.24,240.906 483,237.5C 480.094,234.963 476.927,232.796 473.5,231C 468.955,225.681 469.955,221.847 476.5,219.5 Z"
        />
      </g>
    </svg>
