<?xml version="1.0" encoding="UTF-8"?>
<svg fill="currentColor" enable-background="new 0 0 45.894 45.894" version="1.1" viewBox="0 0 45.894 45.894" xml:space="preserve" xmlns="http://www.w3.org/2000/svg">

	<path  d="m2.512 43.883c1.387 1.307 3.953 0.834 5.732-1.054l9.364-9.94c2.963 2.262 6.653 3.62 10.668 3.62 9.73 0 17.618-7.888 17.618-17.619 0-9.729-7.888-17.618-17.618-17.618-9.731 0-17.619 7.888-17.619 17.618 0 3.552 1.06 6.852 2.868 9.618-0.988 0.219-2.009 0.785-2.853 1.681l-10.672 11.328 2.512 2.366zm25.764-37.912c7.136 0 12.92 5.784 12.92 12.919 0 7.136-5.784 12.92-12.92 12.92-7.135 0-12.92-5.784-12.92-12.92 0-7.135 5.785-12.919 12.92-12.919z"/>

</svg>
