<svg id="Layer_1" enable-background="new 0 0 512 512" height="512" viewBox="0 0 512 512" width="512" xmlns="http://www.w3.org/2000/svg"><g><g><path d="m336.001 110.003h-100c-16.542 0-30 13.458-30 30v40c0 16.542 13.458 30 30 30h100c16.542 0 30-13.458 30-30v-40c0-16.542-13.458-30-30-30zm10 70.001c0 5.514-4.486 10-10 10h-100c-5.514 0-10-4.486-10-10v-40c0-5.514 4.486-10 10-10h100c5.514 0 10 4.486 10 10z"/><path d="m356.001 310.432h-140c-5.523 0-10 4.477-10 10s4.477 10 10 10h140c5.523 0 10-4.477 10-10s-4.477-10-10-10z"/><path d="m356.001 270.431h-140c-5.523 0-10 4.477-10 10s4.477 10 10 10h140c5.523 0 10-4.477 10-10s-4.477-10-10-10z"/><path d="m486 70.63v-32.055c0-11.406-8.803-20.685-19.624-20.685h-22.237c-4.03-10.452-14.175-17.89-26.03-17.89h-346.328c-25.243 0-45.781 20.538-45.781 45.782v420.436c0 25.244 20.538 45.782 45.781 45.782h346.328c15.379 0 27.891-12.512 27.891-27.891v-64.045l23.846-8.825c13.352-4.94 16.154-13.637 16.154-20.063v-32.055c0-6.717-3.053-12.696-7.773-16.477 6.233-4.804 7.773-10.814 7.773-15.577v-32.055c0-6.717-3.053-12.696-7.773-16.477 6.233-4.804 7.773-10.814 7.773-15.577v-32.055c0-6.717-3.053-12.696-7.773-16.478 6.234-4.804 7.773-10.814 7.773-15.577v-32.055c0-6.717-3.053-12.696-7.773-16.477 6.233-4.804 7.773-10.814 7.773-15.578v-32.054c0-6.717-3.053-12.696-7.773-16.477 6.233-4.803 7.773-10.814 7.773-15.577zm-440-24.848c0-12.229 8.56-22.489 20.001-25.12v154.582c0 5.523 4.477 10 10 10s10-4.477 10-10v-155.244h40.002v400.436h-40.002v-155.193c0-5.523-4.477-10-10-10s-10 4.477-10 10v155.563c-7.348.93-14.16 3.602-20.001 7.597zm0 420.436c0-14.216 11.565-25.782 25.781-25.782h314.217v51.564h-314.217c-14.216 0-25.781-11.566-25.781-25.782zm380 17.891c0 4.351-3.54 7.891-7.891 7.891h-12.111v-51.563h12.111c2.739 0 5.388-.397 7.891-1.136zm0-71.564c0 4.351-3.54 7.891-7.891 7.891h-272.106v-400.436h272.105c4.351 0 7.891 3.54 7.891 7.891v384.654zm39.998-21.605c-.347.278-1.205.843-3.093 1.542l-16.905 6.256v-40.302h19.854c.073.147.146.376.146.685zm0-64.109c-.347.278-1.205.843-3.093 1.542l-16.905 6.256v-40.302h19.854c.073.147.146.376.146.685zm0-64.109c-.347.278-1.205.843-3.093 1.542l-16.905 6.256v-40.302h19.854c.073.147.146.377.146.685zm0-64.11c-.347.278-1.205.843-3.093 1.542l-16.905 6.257v-40.302h19.854c.073.147.146.376.146.685zm0-64.109c-.347.278-1.205.843-3.093 1.542l-16.905 6.257v-40.302h19.854c.073.147.146.376.146.685zm0-64.108c-.347.278-1.205.843-3.093 1.542l-16.905 6.256v-40.302h19.854c.073.147.146.376.146.685z"/><path d="m76.001 230.247c5.523 0 10-4.477 10-10v-.007c0-5.523-4.477-9.996-10-9.996s-10 4.48-10 10.003 4.478 10 10 10z"/></g></g></svg>