<svg height="512pt" viewBox="0 -27 512 512" width="512pt" xmlns="http://www.w3.org/2000/svg"><path d="m447.023438 0h-143.113282c-19.035156 0-36.015625 8.375-47.910156 21.460938-11.894531-13.085938-28.875-21.460938-47.910156-21.460938h-143.113282c-35.828124 0-64.976562 29.148438-64.976562 64.980469v297.734375c0 25.847656 21.03125 46.882812 46.882812 46.882812h161.207032c17.011718 0 30.84375 13.832032 30.84375 30.851563 0 9.433593 7.640625 17.066406 17.066406 17.066406s17.066406-7.632813 17.066406-17.066406c0-17.019531 13.832032-30.851563 30.84375-30.851563h161.207032c25.847656 0 46.882812-21.03125 46.882812-46.882812v-297.734375c0-35.832031-29.148438-64.980469-64.976562-64.980469zm-208.089844 383.265625c-9.183594-4.984375-19.683594-7.800781-30.84375-7.800781h-161.207032c-7.03125 0-12.75-5.714844-12.75-12.75v-297.734375c0-17.015625 13.832032-30.847657 30.84375-30.847657h143.113282c17.011718 0 30.84375 13.832032 30.84375 30.847657zm238.933594-20.550781c0 7.035156-5.71875 12.75-12.75 12.75h-161.207032c-11.160156 0-21.660156 2.816406-30.84375 7.800781v-318.285156c0-17.015625 13.832032-30.847657 30.84375-30.847657h143.113282c17.011718 0 30.84375 13.832032 30.84375 30.847657zm0 0"/><path d="m426.667969 119.464844h-102.402344c-9.425781 0-17.066406-7.632813-17.066406-17.066406 0-9.433594 7.640625-17.066407 17.066406-17.066407h102.402344c9.421875 0 17.066406 7.632813 17.066406 17.066407 0 9.433593-7.644531 17.066406-17.066406 17.066406zm0 0"/><path d="m426.667969 187.734375h-102.402344c-9.425781 0-17.066406-7.632813-17.066406-17.066406 0-9.433594 7.640625-17.066407 17.066406-17.066407h102.402344c9.421875 0 17.066406 7.632813 17.066406 17.066407 0 9.433593-7.644531 17.066406-17.066406 17.066406zm0 0"/><path d="m426.667969 256h-102.402344c-9.425781 0-17.066406-7.632812-17.066406-17.066406s7.640625-17.066406 17.066406-17.066406h102.402344c9.421875 0 17.066406 7.632812 17.066406 17.066406s-7.644531 17.066406-17.066406 17.066406zm0 0"/><path d="m187.734375 153.601562h-102.402344c-9.421875 0-17.066406-7.632812-17.066406-17.066406s7.644531-17.070312 17.066406-17.070312h102.402344c9.425781 0 17.066406 7.636718 17.066406 17.070312s-7.640625 17.066406-17.066406 17.066406zm0 0"/><path d="m187.734375 221.867188h-102.402344c-9.421875 0-17.066406-7.632813-17.066406-17.066407 0-9.433593 7.644531-17.066406 17.066406-17.066406h102.402344c9.425781 0 17.066406 7.632813 17.066406 17.066406 0 9.433594-7.640625 17.066407-17.066406 17.066407zm0 0"/><path d="m187.734375 290.132812h-102.402344c-9.421875 0-17.066406-7.632812-17.066406-17.066406s7.644531-17.066406 17.066406-17.066406h102.402344c9.425781 0 17.066406 7.632812 17.066406 17.066406s-7.640625 17.066406-17.066406 17.066406zm0 0"/></svg>